<svg xmlns="http://www.w3.org/2000/svg" xmlns:xlink="http://www.w3.org/1999/xlink" width="1240" zoomAndPan="magnify" viewBox="130 693 1240 115" height="115" preserveAspectRatio="xMidYMid meet" version="1.0"><defs><g/><clipPath id="5a83fc017a"><path d="M 0 0 L 1500 0 L 1500 1500 L 0 1500 Z M 0 0 " clip-rule="nonzero"/></clipPath><clipPath id="376b02ea72"><rect x="0" width="1500" y="0" height="1500"/></clipPath></defs><g fill="#ffffff" fill-opacity="1"><g transform="translate(151.173068, 800.249911)"><g><path d="M 53.28125 0.71875 C 46.5625 0.71875 40.296875 -0.742188 34.484375 -3.671875 C 28.679688 -6.597656 23.617188 -10.53125 19.296875 -15.46875 C 14.972656 -20.414062 11.609375 -25.984375 9.203125 -32.171875 C 6.804688 -38.367188 5.609375 -44.78125 5.609375 -51.40625 C 5.609375 -58.320312 6.804688 -64.875 9.203125 -71.0625 C 11.609375 -77.257812 14.945312 -82.753906 19.21875 -87.546875 C 23.488281 -92.347656 28.53125 -96.113281 34.34375 -98.84375 C 40.15625 -101.582031 46.46875 -102.953125 53.28125 -102.953125 C 63.164062 -102.953125 71.320312 -100.890625 77.75 -96.765625 C 84.1875 -92.640625 89.035156 -87.265625 92.296875 -80.640625 L 82.375 -73.734375 C 79.394531 -79.679688 75.3125 -84.09375 70.125 -86.96875 C 64.945312 -89.851562 59.234375 -91.296875 52.984375 -91.296875 C 47.804688 -91.296875 43.101562 -90.191406 38.875 -87.984375 C 34.65625 -85.773438 31.03125 -82.773438 28 -78.984375 C 24.976562 -75.191406 22.675781 -70.894531 21.09375 -66.09375 C 19.507812 -61.289062 18.71875 -56.300781 18.71875 -51.125 C 18.71875 -45.644531 19.601562 -40.484375 21.375 -35.640625 C 23.15625 -30.796875 25.675781 -26.523438 28.9375 -22.828125 C 32.207031 -19.128906 36 -16.222656 40.3125 -14.109375 C 44.632812 -11.992188 49.289062 -10.9375 54.28125 -10.9375 C 60.144531 -10.9375 65.710938 -12.425781 70.984375 -15.40625 C 76.265625 -18.382812 81.257812 -22.945312 85.96875 -29.09375 L 85.96875 -15.703125 C 76.75 -4.753906 65.851562 0.71875 53.28125 0.71875 Z M 84.390625 -41.1875 L 62.359375 -41.1875 L 62.359375 -50.96875 L 95.328125 -50.96875 L 95.328125 0 L 84.390625 0 Z M 84.390625 -41.1875 "/></g></g></g><g fill="#ffffff" fill-opacity="1"><g transform="translate(275.589001, 800.249911)"><g><path d="M 4.3125 -21.75 C 4.3125 -26.539062 5.679688 -30.6875 8.421875 -34.1875 C 11.160156 -37.695312 14.925781 -40.410156 19.71875 -42.328125 C 24.519531 -44.253906 30.09375 -45.21875 36.4375 -45.21875 C 39.789062 -45.21875 43.335938 -44.953125 47.078125 -44.421875 C 50.828125 -43.890625 54.144531 -43.097656 57.03125 -42.046875 L 57.03125 -47.515625 C 57.03125 -53.273438 55.300781 -57.8125 51.84375 -61.125 C 48.382812 -64.4375 43.488281 -66.09375 37.15625 -66.09375 C 33.019531 -66.09375 29.054688 -65.347656 25.265625 -63.859375 C 21.472656 -62.367188 17.46875 -60.234375 13.25 -57.453125 L 8.640625 -66.390625 C 13.535156 -69.742188 18.429688 -72.257812 23.328125 -73.9375 C 28.222656 -75.625 33.3125 -76.46875 38.59375 -76.46875 C 48.1875 -76.46875 55.769531 -73.800781 61.34375 -68.46875 C 66.914062 -63.144531 69.703125 -55.726562 69.703125 -46.21875 L 69.703125 -14.40625 C 69.703125 -12.863281 70.007812 -11.734375 70.625 -11.015625 C 71.25 -10.296875 72.285156 -9.890625 73.734375 -9.796875 L 73.734375 0 C 72.484375 0.1875 71.398438 0.328125 70.484375 0.421875 C 69.578125 0.523438 68.832031 0.578125 68.25 0.578125 C 65.28125 0.578125 63.050781 -0.234375 61.5625 -1.859375 C 60.070312 -3.492188 59.234375 -5.226562 59.046875 -7.0625 L 58.75 -11.8125 C 55.488281 -7.582031 51.21875 -4.316406 45.9375 -2.015625 C 40.65625 0.285156 35.421875 1.4375 30.234375 1.4375 C 25.242188 1.4375 20.78125 0.40625 16.84375 -1.65625 C 12.90625 -3.71875 9.832031 -6.5 7.625 -10 C 5.414062 -13.507812 4.3125 -17.425781 4.3125 -21.75 Z M 53.28125 -16.421875 C 54.4375 -17.765625 55.347656 -19.128906 56.015625 -20.515625 C 56.691406 -21.910156 57.03125 -23.085938 57.03125 -24.046875 L 57.03125 -33.40625 C 54.050781 -34.5625 50.925781 -35.453125 47.65625 -36.078125 C 44.394531 -36.703125 41.179688 -37.015625 38.015625 -37.015625 C 31.585938 -37.015625 26.378906 -35.738281 22.390625 -33.1875 C 18.410156 -30.644531 16.421875 -27.164062 16.421875 -22.75 C 16.421875 -20.351562 17.066406 -18.023438 18.359375 -15.765625 C 19.648438 -13.515625 21.566406 -11.664062 24.109375 -10.21875 C 26.660156 -8.78125 29.804688 -8.0625 33.546875 -8.0625 C 37.484375 -8.0625 41.226562 -8.851562 44.78125 -10.4375 C 48.332031 -12.019531 51.164062 -14.015625 53.28125 -16.421875 Z M 53.28125 -16.421875 "/></g></g></g><g fill="#ffffff" fill-opacity="1"><g transform="translate(376.964934, 800.249911)"><g><path d="M 43.484375 1.4375 C 37.816406 1.4375 32.65625 0.40625 28 -1.65625 C 23.351562 -3.71875 19.320312 -6.570312 15.90625 -10.21875 C 12.5 -13.875 9.859375 -18.050781 7.984375 -22.75 C 6.117188 -27.457031 5.1875 -32.453125 5.1875 -37.734375 C 5.1875 -44.835938 6.769531 -51.316406 9.9375 -57.171875 C 13.101562 -63.023438 17.566406 -67.703125 23.328125 -71.203125 C 29.085938 -74.710938 35.757812 -76.46875 43.34375 -76.46875 C 50.738281 -76.46875 57.191406 -74.8125 62.703125 -71.5 C 68.222656 -68.1875 72.332031 -63.742188 75.03125 -58.171875 L 62.640625 -54.28125 C 60.722656 -57.832031 58.035156 -60.59375 54.578125 -62.5625 C 51.117188 -64.53125 47.28125 -65.515625 43.0625 -65.515625 C 38.445312 -65.515625 34.242188 -64.3125 30.453125 -61.90625 C 26.660156 -59.507812 23.660156 -56.222656 21.453125 -52.046875 C 19.242188 -47.878906 18.140625 -43.109375 18.140625 -37.734375 C 18.140625 -32.453125 19.265625 -27.671875 21.515625 -23.390625 C 23.773438 -19.117188 26.800781 -15.734375 30.59375 -13.234375 C 34.382812 -10.742188 38.585938 -9.5 43.203125 -9.5 C 46.171875 -9.5 49.023438 -10.023438 51.765625 -11.078125 C 54.503906 -12.140625 56.90625 -13.554688 58.96875 -15.328125 C 61.03125 -17.109375 62.445312 -19.054688 63.21875 -21.171875 L 75.59375 -17.421875 C 74.0625 -13.773438 71.734375 -10.535156 68.609375 -7.703125 C 65.492188 -4.867188 61.800781 -2.632812 57.53125 -1 C 53.257812 0.625 48.578125 1.4375 43.484375 1.4375 Z M 43.484375 1.4375 "/></g></g></g><g fill="#ffffff" fill-opacity="1"><g transform="translate(477.620886, 800.249911)"><g><path d="M 43.484375 1.4375 C 37.816406 1.4375 32.65625 0.40625 28 -1.65625 C 23.351562 -3.71875 19.320312 -6.546875 15.90625 -10.140625 C 12.5 -13.742188 9.859375 -17.894531 7.984375 -22.59375 C 6.117188 -27.300781 5.1875 -32.296875 5.1875 -37.578125 C 5.1875 -44.679688 6.816406 -51.160156 10.078125 -57.015625 C 13.335938 -62.878906 17.875 -67.585938 23.6875 -71.140625 C 29.5 -74.691406 36.144531 -76.46875 43.625 -76.46875 C 51.21875 -76.46875 57.820312 -74.664062 63.4375 -71.0625 C 69.050781 -67.457031 73.414062 -62.75 76.53125 -56.9375 C 79.65625 -51.132812 81.21875 -44.875 81.21875 -38.15625 C 81.21875 -37.195312 81.191406 -36.257812 81.140625 -35.34375 C 81.097656 -34.4375 81.023438 -33.742188 80.921875 -33.265625 L 18.578125 -33.265625 C 18.960938 -28.367188 20.328125 -24.023438 22.671875 -20.234375 C 25.023438 -16.441406 28.070312 -13.460938 31.8125 -11.296875 C 35.5625 -9.140625 39.597656 -8.0625 43.921875 -8.0625 C 48.523438 -8.0625 52.867188 -9.210938 56.953125 -11.515625 C 61.035156 -13.816406 63.84375 -16.84375 65.375 -20.59375 L 76.3125 -17.5625 C 74.6875 -13.914062 72.265625 -10.648438 69.046875 -7.765625 C 65.828125 -4.890625 62.035156 -2.632812 57.671875 -1 C 53.304688 0.625 48.578125 1.4375 43.484375 1.4375 Z M 18.140625 -42.046875 L 69.40625 -42.046875 C 69.019531 -46.941406 67.625 -51.257812 65.21875 -55 C 62.820312 -58.75 59.753906 -61.675781 56.015625 -63.78125 C 52.273438 -65.894531 48.144531 -66.953125 43.625 -66.953125 C 39.21875 -66.953125 35.140625 -65.894531 31.390625 -63.78125 C 27.648438 -61.675781 24.601562 -58.75 22.25 -55 C 19.894531 -51.257812 18.523438 -46.941406 18.140625 -42.046875 Z M 18.140625 -42.046875 "/></g></g></g><g fill="#ffffff" fill-opacity="1"><g transform="translate(584.324856, 800.249911)"><g><path d="M 123.546875 0 L 110.875 0 L 110.875 -42.046875 C 110.875 -49.921875 109.601562 -55.726562 107.0625 -59.46875 C 104.519531 -63.21875 100.753906 -65.09375 95.765625 -65.09375 C 90.671875 -65.09375 86.0625 -63.242188 81.9375 -59.546875 C 77.8125 -55.847656 74.882812 -51.070312 73.15625 -45.21875 L 73.15625 0 L 60.484375 0 L 60.484375 -42.046875 C 60.484375 -50.015625 59.234375 -55.847656 56.734375 -59.546875 C 54.234375 -63.242188 50.488281 -65.09375 45.5 -65.09375 C 40.507812 -65.09375 35.925781 -63.289062 31.75 -59.6875 C 27.570312 -56.082031 24.617188 -51.304688 22.890625 -45.359375 L 22.890625 0 L 10.21875 0 L 10.21875 -75.171875 L 21.75 -75.171875 L 21.75 -59.046875 C 24.820312 -64.609375 28.804688 -68.898438 33.703125 -71.921875 C 38.597656 -74.953125 44.113281 -76.46875 50.25 -76.46875 C 56.488281 -76.46875 61.476562 -74.757812 65.21875 -71.34375 C 68.96875 -67.9375 71.273438 -63.546875 72.140625 -58.171875 C 75.503906 -64.128906 79.582031 -68.664062 84.375 -71.78125 C 89.175781 -74.90625 94.648438 -76.46875 100.796875 -76.46875 C 105.117188 -76.46875 108.742188 -75.675781 111.671875 -74.09375 C 114.597656 -72.507812 116.925781 -70.300781 118.65625 -67.46875 C 120.382812 -64.632812 121.628906 -61.296875 122.390625 -57.453125 C 123.160156 -53.617188 123.546875 -49.441406 123.546875 -44.921875 Z M 123.546875 0 "/></g></g></g><g fill="#ffffff" fill-opacity="1"><g transform="translate(738.98076, 800.249911)"><g/></g></g><g fill="#ffffff" fill-opacity="1"><g transform="translate(797.016763, 800.249911)"><g><path d="M 47.234375 -102.234375 L 49.828125 -102.234375 L 94.3125 0 L 91.15625 0 L 75.171875 -36.578125 L 21.75 -36.578125 L 5.765625 0 L 2.59375 0 Z M 73.875 -39.453125 L 48.53125 -98.0625 L 22.890625 -39.453125 Z M 73.875 -39.453125 "/></g></g></g><g fill="#ffffff" fill-opacity="1"><g transform="translate(910.920703, 800.249911)"><g><path d="M 36.140625 0 L 3.59375 -74.734375 L 6.765625 -74.734375 L 37.4375 -4.171875 L 68.109375 -74.734375 L 71.28125 -74.734375 L 38.734375 0 Z M 36.140625 0 "/></g></g></g><g fill="#ffffff" fill-opacity="1"><g transform="translate(1004.808653, 800.249911)"><g><path d="M 42.1875 1.4375 C 37.289062 1.4375 32.679688 0.429688 28.359375 -1.578125 C 24.046875 -3.597656 20.253906 -6.40625 16.984375 -10 C 13.722656 -13.601562 11.179688 -17.734375 9.359375 -22.390625 C 7.535156 -27.046875 6.625 -31.96875 6.625 -37.15625 C 6.625 -42.4375 7.554688 -47.40625 9.421875 -52.0625 C 11.296875 -56.71875 13.863281 -60.84375 17.125 -64.4375 C 20.394531 -68.039062 24.1875 -70.847656 28.5 -72.859375 C 32.820312 -74.878906 37.382812 -75.890625 42.1875 -75.890625 C 46.988281 -75.890625 51.550781 -74.878906 55.875 -72.859375 C 60.195312 -70.847656 63.988281 -68.039062 67.25 -64.4375 C 70.507812 -60.84375 73.078125 -56.71875 74.953125 -52.0625 C 76.828125 -47.40625 77.765625 -42.4375 77.765625 -37.15625 C 77.765625 -31.96875 76.847656 -27.046875 75.015625 -22.390625 C 73.191406 -17.734375 70.625 -13.601562 67.3125 -10 C 64.007812 -6.40625 60.21875 -3.597656 55.9375 -1.578125 C 51.664062 0.429688 47.082031 1.4375 42.1875 1.4375 Z M 9.5 -36.859375 C 9.5 -30.429688 10.960938 -24.53125 13.890625 -19.15625 C 16.816406 -13.78125 20.753906 -9.484375 25.703125 -6.265625 C 30.648438 -3.046875 36.097656 -1.4375 42.046875 -1.4375 C 47.992188 -1.4375 53.460938 -3.066406 58.453125 -6.328125 C 63.453125 -9.597656 67.4375 -13.96875 70.40625 -19.4375 C 73.382812 -24.90625 74.875 -30.859375 74.875 -37.296875 C 74.875 -43.722656 73.382812 -49.648438 70.40625 -55.078125 C 67.4375 -60.503906 63.476562 -64.847656 58.53125 -68.109375 C 53.59375 -71.378906 48.144531 -73.015625 42.1875 -73.015625 C 36.332031 -73.015625 30.910156 -71.359375 25.921875 -68.046875 C 20.929688 -64.734375 16.945312 -60.335938 13.96875 -54.859375 C 10.988281 -49.390625 9.5 -43.390625 9.5 -36.859375 Z M 9.5 -36.859375 "/></g></g></g><g fill="#ffffff" fill-opacity="1"><g transform="translate(1110.792584, 800.249911)"><g><path d="M 42.765625 1.4375 C 37.867188 1.4375 33.234375 0.40625 28.859375 -1.65625 C 24.492188 -3.71875 20.628906 -6.546875 17.265625 -10.140625 C 13.910156 -13.742188 11.296875 -17.894531 9.421875 -22.59375 C 7.554688 -27.300781 6.625 -32.347656 6.625 -37.734375 C 6.625 -44.929688 8.207031 -51.410156 11.375 -57.171875 C 14.539062 -62.929688 18.859375 -67.488281 24.328125 -70.84375 C 29.804688 -74.207031 35.90625 -75.890625 42.625 -75.890625 C 48.863281 -75.890625 54.476562 -74.425781 59.46875 -71.5 C 64.457031 -68.570312 68.203125 -64.46875 70.703125 -59.1875 L 67.828125 -58.171875 C 65.421875 -62.785156 61.914062 -66.410156 57.3125 -69.046875 C 52.707031 -71.691406 47.664062 -73.015625 42.1875 -73.015625 C 36.144531 -73.015625 30.648438 -71.453125 25.703125 -68.328125 C 20.753906 -65.203125 16.816406 -60.972656 13.890625 -55.640625 C 10.960938 -50.316406 9.5 -44.347656 9.5 -37.734375 C 9.5 -31.203125 10.988281 -25.175781 13.96875 -19.65625 C 16.945312 -14.132812 20.929688 -9.71875 25.921875 -6.40625 C 30.910156 -3.09375 36.382812 -1.4375 42.34375 -1.4375 C 46.269531 -1.4375 50.101562 -2.179688 53.84375 -3.671875 C 57.59375 -5.160156 60.835938 -7.101562 63.578125 -9.5 C 66.316406 -11.90625 68.066406 -14.453125 68.828125 -17.140625 L 71.71875 -16.265625 C 70.65625 -12.910156 68.632812 -9.890625 65.65625 -7.203125 C 62.6875 -4.515625 59.207031 -2.398438 55.21875 -0.859375 C 51.238281 0.671875 47.085938 1.4375 42.765625 1.4375 Z M 42.765625 1.4375 "/></g></g></g><g fill="#ffffff" fill-opacity="1"><g transform="translate(1209.864536, 800.249911)"><g><path d="M 5.609375 -21.453125 C 5.609375 -25.679688 6.925781 -29.378906 9.5625 -32.546875 C 12.207031 -35.710938 15.832031 -38.207031 20.4375 -40.03125 C 25.050781 -41.851562 30.382812 -42.765625 36.4375 -42.765625 C 40.65625 -42.765625 44.992188 -42.40625 49.453125 -41.6875 C 53.921875 -40.96875 57.929688 -39.9375 61.484375 -38.59375 L 61.484375 -47.09375 C 61.484375 -54.863281 59.25 -61.125 54.78125 -65.875 C 50.320312 -70.632812 44.398438 -73.015625 37.015625 -73.015625 C 33.460938 -73.015625 29.597656 -72.21875 25.421875 -70.625 C 21.242188 -69.039062 17.039062 -66.765625 12.8125 -63.796875 L 11.09375 -66.09375 C 15.882812 -69.351562 20.441406 -71.800781 24.765625 -73.4375 C 29.085938 -75.070312 33.171875 -75.890625 37.015625 -75.890625 C 45.359375 -75.890625 52.003906 -73.296875 56.953125 -68.109375 C 61.898438 -62.929688 64.375 -55.925781 64.375 -47.09375 L 64.375 -5.765625 C 64.375 -4.796875 64.585938 -4.070312 65.015625 -3.59375 C 65.441406 -3.113281 65.992188 -2.875 66.671875 -2.875 L 66.671875 0 C 66.097656 0 65.664062 -0.0195312 65.375 -0.0625 C 65.082031 -0.113281 64.84375 -0.1875 64.65625 -0.28125 C 63.695312 -0.664062 62.925781 -1.363281 62.34375 -2.375 C 61.769531 -3.382812 61.484375 -4.515625 61.484375 -5.765625 L 61.484375 -12.671875 C 58.023438 -8.253906 53.507812 -4.796875 47.9375 -2.296875 C 42.375 0.191406 36.332031 1.4375 29.8125 1.4375 C 25.300781 1.4375 21.21875 0.429688 17.5625 -1.578125 C 13.914062 -3.597656 11.007812 -6.359375 8.84375 -9.859375 C 6.6875 -13.367188 5.609375 -17.234375 5.609375 -21.453125 Z M 59.328125 -14.6875 C 60.097656 -15.738281 60.648438 -16.769531 60.984375 -17.78125 C 61.316406 -18.789062 61.484375 -19.726562 61.484375 -20.59375 L 61.484375 -35.421875 C 57.648438 -36.960938 53.644531 -38.09375 49.46875 -38.8125 C 45.289062 -39.53125 40.945312 -39.890625 36.4375 -39.890625 C 28.082031 -39.890625 21.335938 -38.207031 16.203125 -34.84375 C 11.066406 -31.488281 8.5 -27.023438 8.5 -21.453125 C 8.5 -17.710938 9.429688 -14.328125 11.296875 -11.296875 C 13.171875 -8.273438 15.738281 -5.875 19 -4.09375 C 22.269531 -2.320312 25.875 -1.4375 29.8125 -1.4375 C 36.238281 -1.4375 42.113281 -2.632812 47.4375 -5.03125 C 52.769531 -7.4375 56.734375 -10.65625 59.328125 -14.6875 Z M 59.328125 -14.6875 "/></g></g></g><g fill="#ffffff" fill-opacity="1"><g transform="translate(1306.344493, 800.249911)"><g><path d="M 41.1875 -3.453125 C 41.1875 -3.453125 40.582031 -3.09375 39.375 -2.375 C 38.175781 -1.65625 36.566406 -0.957031 34.546875 -0.28125 C 32.535156 0.382812 30.1875 0.71875 27.5 0.71875 C 25.195312 0.71875 23.0625 0.238281 21.09375 -0.71875 C 19.125 -1.675781 17.539062 -3.019531 16.34375 -4.75 C 15.144531 -6.476562 14.546875 -8.492188 14.546875 -10.796875 L 14.546875 -71.859375 L 3.75 -71.859375 L 3.75 -74.734375 L 14.546875 -74.734375 L 14.546875 -100.796875 L 17.421875 -100.796875 L 17.421875 -74.734375 L 35.421875 -74.734375 L 35.421875 -71.859375 L 17.421875 -71.859375 L 17.421875 -10.796875 C 17.617188 -8.015625 18.722656 -5.878906 20.734375 -4.390625 C 22.753906 -2.898438 25.007812 -2.15625 27.5 -2.15625 C 30.863281 -2.15625 33.695312 -2.726562 36 -3.875 C 38.300781 -5.03125 39.5 -5.660156 39.59375 -5.765625 Z M 41.1875 -3.453125 "/></g></g></g></svg>