<?xml version="1.0" encoding="utf-8"?>
<!-- Generator: Adobe Illustrator 25.2.1, SVG Export Plug-In . SVG Version: 6.00 Build 0)  -->
<svg version="1.1" id="Calque_1" xmlns="http://www.w3.org/2000/svg" xmlns:xlink="http://www.w3.org/1999/xlink" x="0px" y="0px"
	 viewBox="0 0 288.4 101.7" style="enable-background:new 0 0 288.4 101.7;" xml:space="preserve">
<style type="text/css">
	.st0{fill:none;stroke:url(#SVGID_1_);stroke-width:5;stroke-miterlimit:10;}
	.st1{fill:url(#SVGID_2_);}
	.st2{fill:url(#SVGID_3_);}
	.st3{fill:url(#SVGID_4_);}
	.st4{fill:url(#SVGID_5_);}
	.st5{fill:#A20607;}
</style>
<linearGradient id="SVGID_1_" gradientUnits="userSpaceOnUse" x1="-69.6897" y1="363.0198" x2="-97.5149" y2="362.8197" gradientTransform="matrix(0.7071 -0.7071 0.7071 0.7071 -130.5765 -264.7504)">
	<stop  offset="0" style="stop-color:#A20607"/>
	<stop  offset="1" style="stop-color:#000000"/>
</linearGradient>
<path class="st0" d="M50.8,50.9L67,34.8c8.8,8.9,8.8,23.3,0,32.2l0,0L50.8,50.9z"/>
<linearGradient id="SVGID_2_" gradientUnits="userSpaceOnUse" x1="82.6898" y1="330.386" x2="21.5298" y2="330.726" gradientTransform="matrix(1 0 0 1 -4.01 -262.3672)">
	<stop  offset="0" style="stop-color:#A20607"/>
	<stop  offset="1" style="stop-color:#000000"/>
</linearGradient>
<path class="st1" d="M79.3,75l-6.2-6c-4.9,5.2-11.8,8.2-18.9,8c-4.7,0.1-9.4-1.1-13.5-3.4c-4-2.2-7.2-5.4-9.5-9.3
	c-2.3-4-3.5-8.6-3.4-13.2h-9.6c-0.1,6.2,1.5,12.2,4.6,17.5c3,5.2,7.5,9.4,12.8,12.3c5.6,3,11.9,4.5,18.2,4.5
	c4.9,0.1,9.8-0.8,14.4-2.7C72.4,81.1,76.2,78.4,79.3,75z"/>
<g>
	
		<linearGradient id="SVGID_3_" gradientUnits="userSpaceOnUse" x1="0" y1="315.2672" x2="101.6" y2="315.2672" gradientTransform="matrix(1 0 0 1 0 -264.3672)">
		<stop  offset="0" style="stop-color:#A20607"/>
		<stop  offset="1" style="stop-color:#000000"/>
	</linearGradient>
	<path class="st2" d="M50.8,101.7C22.8,101.7,0,78.9,0,50.9S22.8,0.1,50.8,0.1s50.8,22.8,50.8,50.8S78.8,101.7,50.8,101.7z
		 M50.8,7.1C26.7,7.1,7,26.8,7,50.9c0,24.2,19.7,43.8,43.8,43.8C75,94.7,94.6,75,94.6,50.9S75,7.1,50.8,7.1z"/>
</g>
<g>
	
		<linearGradient id="SVGID_4_" gradientUnits="userSpaceOnUse" x1="-84.6337" y1="221.8547" x2="-30.3273" y2="221.8547" gradientTransform="matrix(0.7071 -0.7071 0.7071 0.7071 -32.1465 -146.5504)">
		<stop  offset="0" style="stop-color:#A20607"/>
		<stop  offset="1" style="stop-color:#000000"/>
	</linearGradient>
	<path class="st3" d="M84.1,89.3L45.7,50.9l38.4-38.4l2.5,2.5c19.6,19.8,19.6,52,0,71.9L84.1,89.3z M55.6,50.9L84,79.3
		C97.8,63,97.8,38.8,84,22.5L55.6,50.9z"/>
</g>
<linearGradient id="SVGID_5_" gradientUnits="userSpaceOnUse" x1="80.4394" y1="296.6447" x2="19.2794" y2="296.2147" gradientTransform="matrix(1 0 0 1 -4.01 -262.3672)">
	<stop  offset="0" style="stop-color:#A20607"/>
	<stop  offset="1" style="stop-color:#000000"/>
</linearGradient>
<path class="st4" d="M68.2,19.4c-4.6-1.8-9.5-2.7-14.4-2.6c-6.4-0.1-12.6,1.4-18.2,4.5c-5.3,2.8-9.7,7.1-12.8,12.3
	c-3.1,5.3-4.7,11.4-4.6,17.6h9.6c-0.1-4.6,1.1-9.2,3.4-13.2c2.2-3.9,5.5-7.1,9.5-9.3c4.1-2.3,8.8-3.4,13.5-3.4
	c7.2-0.2,14,2.8,18.9,8l6.2-6C76.2,23.8,72.4,21.1,68.2,19.4z"/>
<g>
	<path d="M161.7,27.2c-5.3,0-9.2,4-9.2,9.4c0,5.5,4,9.4,9.9,9.4c3,0,5.5-1.1,7.2-3l-1.8-2.1c-1.4,1.5-3.2,2.2-5.3,2.2
		c-3.7,0-6.3-2.2-6.7-5.4h14.9c0-0.3,0.1-0.7,0.1-1C170.8,31,167,27.2,161.7,27.2z M155.8,35.4c0.4-3.2,2.7-5.3,5.9-5.3
		s5.6,2.2,5.9,5.3H155.8z"/>
	<path d="M178.7,36.3c0-4,2.3-6.1,5.8-6.1c3.2,0,5,1.8,5,5.4v10.3h3.3V35.3c0-5.5-3.1-8-7.6-7.9c-2.9,0-5.2,1-6.6,2.9v-2.8h-3.2
		v18.3h3.3V36.3z"/>
	<path d="M199.5,40.2c0,3.8,2.1,5.8,5.8,5.8c1.5,0,3-0.4,4-1.3l-1-2.4c-0.7,0.6-1.6,0.9-2.6,0.9c-1.9,0-2.9-1.1-2.9-3.1v-9.9h5.3
		v-2.7h-5.3v-4h-3.3v4h-3.1v2.7h3.1V40.2z"/>
	<path d="M224.7,43.4v2.4h3.2V34.7c0-5-2.9-7.4-7.8-7.5c-3,0-5.7,0.9-7.6,2.4l1.4,2.5c1.4-1.2,3.6-2,5.8-2c3.3,0,4.9,1.6,4.9,4.4
		v0.7h-5.3c-5.5,0-7.4,2.5-7.4,5.4c0,3.2,2.6,5.4,6.8,5.4C221.5,46,223.6,45.1,224.7,43.4z M215.2,40.4c0-1.5,0.9-2.8,4.2-2.8h5.1
		v2.6c-0.8,2.1-2.8,3.3-5.2,3.2C216.7,43.4,215.2,42.2,215.2,40.4z"/>
	<path d="M248,43v2.9h3.1V27.5h-3.2V37c0,4-2.2,6.1-5.7,6.1c-3.2,0-5-1.8-5-5.4V27.5h-3.3V38c0,5.4,3.2,8,7.9,8
		C244.4,46,246.6,44.9,248,43z"/>
	<path d="M260.7,36.7c0-4,2.2-6.2,5.8-6.2c0.3,0,0.5,0,0.8,0v-3.2c-3.2,0-5.5,1.1-6.7,3.3v-3.1h-3.2v18.3h3.3V36.7z"/>
	<path d="M286.7,43l-1.8-2.1c-1.4,1.5-3.2,2.2-5.3,2.2c-3.7,0-6.3-2.2-6.7-5.4h14.9c0-0.3,0.1-0.7,0.1-1c0-5.7-3.8-9.5-9.1-9.5
		c-5.3,0-9.2,4-9.2,9.4c0,5.5,4,9.4,9.9,9.4C282.5,46,285,44.9,286.7,43z M278.8,30.1c3.2,0,5.6,2.2,5.9,5.3h-11.8
		C273.2,32.2,275.6,30.1,278.8,30.1z"/>
	<path d="M142.5,35.2l-1.2,2.6c-2.8,1.9-6,2.8-9.6,2.8c-10.2,0-17.8-7.4-17.8-17.4s7.6-17.4,17.8-17.4c4.9,0,9.2,1.7,12.7,5.4
		l4.2-4.1C144.5,2.4,138.4,0,131.4,0c-13.8,0-24,9.8-24,23.2s10.2,23.1,23.9,23.2c2.3,0,4.4-0.3,6.5-0.8L122,80.5h6.7l5-11.3h24.1
		l4.9,11.3h6.8l-20.6-45.3H142.5z M136,64l9.7-22.1c0,0,0.1,0,0.1-0.1l9.8,22.1H136z"/>
	<polygon points="181.1,76.9 174.8,62.2 171.3,62.2 179.3,80.6 182.7,80.6 190.7,62.2 187.5,62.2 	"/>
	<path d="M202.1,62c-5.5,0-9.6,3.9-9.6,9.4c0,5.4,4.1,9.3,9.6,9.4c5.5,0,9.5-3.9,9.5-9.4S207.6,62,202.1,62z M202,77.9
		c-3.5,0-6.2-2.6-6.2-6.5c0-3.9,2.6-6.4,6.2-6.4s6.2,2.5,6.2,6.4C208.2,75.3,205.5,77.9,202,77.9z"/>
	<path d="M225.2,64.9c2,0,3.8,0.8,5,2.6l2.5-1.6c-1.5-2.5-4.2-3.9-7.5-3.9c-5.6,0-9.7,3.9-9.7,9.4c0,5.4,4.1,9.3,9.7,9.3
		c3.3,0,6-1.3,7.5-3.9l-2.5-1.6c-1.2,1.8-3,2.6-5,2.6c-3.6,0-6.3-2.5-6.3-6.5C218.9,67.4,221.6,64.9,225.2,64.9z"/>
	<path d="M244.8,62c-3,0-5.7,0.9-7.6,2.4l1.4,2.5c1.4-1.2,3.6-2,5.8-2c3.3,0,4.9,1.6,4.9,4.4V70H244c-5.5,0-7.4,2.5-7.4,5.4
		c0,3.2,2.6,5.4,6.8,5.4c2.8,0,4.9-0.9,6-2.6v2.4h3.2V69.5C252.6,64.4,249.8,62,244.8,62z M249.3,74.9c-0.9,2.1-2.8,3.3-5.2,3.2
		c-2.6,0-4.1-1.2-4.1-3c0-1.5,0.9-2.8,4.2-2.8h5.1V74.9z"/>
	<path d="M266.5,77.9c-1.9,0-2.9-1.1-2.9-3.1v-9.9h5.3v-2.7h-5.3v-4h-3.3v4h-3.1v2.7h3.1V75c0,3.8,2.1,5.8,5.8,5.8
		c1.5,0,3-0.4,4-1.3l-1-2.5C268.4,77.6,267.5,77.9,266.5,77.9z"/>
	<path d="M276.9,67.3c0-1.4,1.4-2.5,4.3-2.5c1.8,0,3.6,0.4,5.3,1.5l1.4-2.6c-1.6-1.1-4.3-1.7-6.7-1.7c-4.8,0-7.7,2.2-7.7,5.5
		c0,7.3,11.6,3.8,11.6,7.9c0,1.6-1.3,2.5-4.4,2.5c-2.3,0-4.8-0.8-6.4-1.9l-1.4,2.6c1.5,1.2,4.5,2.1,7.7,2c4.9,0,7.9-2.1,7.9-5.4
		C288.5,68.1,276.9,71.6,276.9,67.3z"/>
</g>
<g>
	<polygon class="st5" points="116,91.4 119.2,91.4 119.2,90.3 116,90.3 116,88.9 119.4,88.9 119.4,87.8 114.7,87.8 114.7,94.1 
		119.5,94.1 119.5,93 116,93 	"/>
	<path class="st5" d="M125,90.5c0-0.2-0.1-0.4-0.2-0.5c-0.1-0.2-0.3-0.3-0.5-0.4c-0.2-0.1-0.4-0.1-0.7-0.1c-0.6,0-1.1,0.3-1.5,0.8
		v-0.7H121v4.6h1.2v-2.1c0-0.5,0-0.8,0.1-1c0-0.2,0.1-0.4,0.3-0.5c0.2-0.1,0.4-0.2,0.6-0.2c0.1,0,0.2,0.1,0.4,0.1
		c0.2,0,0.2,0.2,0.3,0.3c0.1,0.2,0.1,0.5,0.1,1v2.3h1.1v-2.8C125.1,91,125,90.7,125,90.5z"/>
	<path class="st5" d="M128.4,93.3c-0.1,0-0.1-0.1-0.2-0.1c0-0.1-0.1-0.1-0.1-0.2c0-0.1,0-0.3,0-0.7v-1.8h0.8v-1H128v-1.6l-1.2,0.7
		v0.9h-0.6v1h0.6v2c0,0.4,0,0.7,0,0.8c0.1,0.2,0.1,0.4,0.2,0.5c0.1,0.1,0.2,0.2,0.4,0.3c0.2,0.1,0.4,0.1,0.6,0.1
		c0.4,0,0.7-0.1,1-0.2l-0.1-0.8C128.7,93.3,128.5,93.3,128.4,93.3z"/>
	<path class="st5" d="M131.8,89.5c-0.1,0.1-0.3,0.3-0.5,0.6v-0.6h-1.1v4.6h1.1v-1.5c0-0.7,0-1.3,0.1-1.5c0.1-0.2,0.2-0.4,0.3-0.5
		c0.1-0.1,0.2-0.1,0.4-0.1s0.4,0.1,0.6,0.2l0.4-1.1c-0.3-0.1-0.5-0.2-0.8-0.2C132.1,89.4,132,89.4,131.8,89.5z"/>
	<path class="st5" d="M137.2,90c-0.4-0.5-0.9-0.7-1.6-0.7c-0.6,0-1.1,0.2-1.5,0.6c-0.4,0.5-0.6,1-0.6,1.8c0,0.7,0.2,1.2,0.5,1.6
		c0.4,0.5,1,0.8,1.8,0.8c0.5,0,1-0.1,1.3-0.3c0.3-0.2,0.5-0.6,0.7-1l-1.2-0.2c-0.1,0.3-0.2,0.4-0.3,0.4c-0.2,0.1-0.3,0.2-0.5,0.2
		c-0.3,0-0.5-0.1-0.7-0.3c-0.2-0.2-0.3-0.4-0.3-0.8h3C137.8,91.1,137.6,90.4,137.2,90z M134.8,91.4c0-0.3,0.1-0.6,0.3-0.8
		c0.2-0.2,0.4-0.3,0.7-0.3c0.2,0,0.4,0.1,0.6,0.3c0.2,0.2,0.3,0.5,0.3,0.8H134.8z"/>
	<path class="st5" d="M141.8,89.4c-0.3,0-0.6,0.1-0.8,0.2c-0.3,0.2-0.5,0.4-0.6,0.6v-0.7h-1.1h-0.1v6.3h1.2v-2.3
		c0.2,0.2,0.4,0.4,0.6,0.5c0.2,0.1,0.4,0.1,0.7,0.1c0.6,0,1-0.2,1.4-0.6c0.4-0.4,0.6-1,0.6-1.8c0-0.7-0.2-1.3-0.6-1.7
		C142.8,89.6,142.3,89.4,141.8,89.4z M142.2,92.9c-0.2,0.2-0.4,0.3-0.7,0.3c-0.2,0-0.5-0.2-0.7-0.4c-0.2-0.2-0.3-0.6-0.3-1.1
		c0-0.4,0.1-0.7,0.3-1c0.2-0.2,0.4-0.3,0.7-0.3s0.5,0.1,0.7,0.3c0.2,0.3,0.3,0.6,0.3,1.1S142.4,92.7,142.2,92.9z"/>
	<path class="st5" d="M146.7,89.5c-0.1,0.1-0.3,0.3-0.5,0.6v-0.6h-1.1v4.6h1.1v-1.5c0-0.7,0-1.3,0.1-1.5c0.1-0.2,0.2-0.4,0.3-0.5
		c0.1-0.1,0.2-0.1,0.4-0.1c0.2,0,0.4,0.1,0.6,0.2l0.4-1.1c-0.3-0.1-0.5-0.2-0.8-0.2C147,89.4,146.9,89.4,146.7,89.5z"/>
	<rect x="148.9" y="87.8" class="st5" width="1.2" height="1.1"/>
	<rect x="148.9" y="89.5" class="st5" width="1.2" height="4.6"/>
	<path class="st5" d="M155.3,91.6c-0.2-0.2-0.7-0.4-1.3-0.5c-0.6-0.1-1-0.2-1.1-0.3c-0.1,0-0.1-0.1-0.1-0.2c0-0.1,0-0.1,0.1-0.2
		c0.2-0.1,0.4-0.1,0.7-0.1s0.5,0,0.6,0.1c0.2,0.1,0.3,0.2,0.3,0.4l1.1-0.2c-0.1-0.4-0.3-0.7-0.6-0.9s-0.8-0.3-1.4-0.3
		c-0.7,0-1.2,0.1-1.5,0.4c-0.3,0.3-0.5,0.6-0.5,1c0,0.4,0.1,0.8,0.5,1c0.2,0.2,0.8,0.4,1.8,0.6c0.2,0.1,0.3,0.1,0.4,0.2
		c0.1,0,0.1,0.1,0.1,0.2c0,0.1-0.1,0.2-0.2,0.3c-0.2,0.1-0.4,0.2-0.7,0.2s-0.5-0.1-0.7-0.2c-0.1-0.1-0.2-0.3-0.3-0.5l-1.2,0.2
		c0.2,0.4,0.4,0.8,0.9,0.9c0.4,0.3,0.9,0.4,1.5,0.4c0.6,0,1.2-0.2,1.5-0.5c0.3-0.3,0.5-0.7,0.5-1.1
		C155.7,92.1,155.6,91.8,155.3,91.6z"/>
	<path class="st5" d="M160.3,90c-0.4-0.5-0.9-0.7-1.6-0.7c-0.6,0-1.1,0.2-1.5,0.6c-0.4,0.5-0.6,1-0.6,1.8c0,0.7,0.2,1.2,0.5,1.6
		c0.4,0.5,1,0.8,1.8,0.8c0.5,0,1-0.1,1.3-0.3c0.3-0.2,0.5-0.6,0.7-1l-1.2-0.2c0,0.3-0.1,0.4-0.3,0.4c-0.2,0.1-0.3,0.2-0.5,0.2
		c-0.3,0-0.5-0.1-0.7-0.3c-0.2-0.2-0.3-0.4-0.3-0.8h3C160.9,91.1,160.7,90.4,160.3,90z M157.9,91.4c0-0.3,0.1-0.6,0.3-0.8
		c0.2-0.2,0.4-0.3,0.7-0.3c0.2,0,0.4,0.1,0.6,0.3c0.2,0.2,0.3,0.5,0.3,0.8H157.9z"/>
	<path class="st5" d="M168.2,87.7V90c-0.3-0.4-0.8-0.6-1.3-0.6c-0.6,0-1,0.2-1.4,0.6c-0.3,0.4-0.5,1-0.5,1.8c0,0.8,0.2,1.4,0.6,1.8
		c0.3,0.4,0.8,0.6,1.3,0.6c0.3,0,0.5-0.1,0.8-0.2c0.3-0.1,0.5-0.3,0.7-0.6v0.7h1v-6.4H168.2z M168,92.9c-0.2,0.3-0.4,0.4-0.7,0.4
		c-0.3,0-0.6-0.2-0.8-0.5c-0.1-0.3-0.2-0.6-0.2-1.1c0-0.4,0.1-0.8,0.3-1c0.2-0.2,0.4-0.3,0.7-0.3c0.3,0,0.5,0.1,0.7,0.3
		s0.3,0.6,0.3,1.1S168.2,92.7,168,92.9z"/>
	<path class="st5" d="M171.2,89h0.6c0,0.3-0.1,0.5-0.2,0.6c-0.1,0.1-0.3,0.2-0.5,0.3l0.2,0.5c0.2-0.1,0.4-0.2,0.6-0.4
		c0.1-0.1,0.2-0.3,0.3-0.5c0.1-0.2,0.1-0.5,0.1-0.8v-0.9h-1.1V89z"/>
	<rect x="174" y="87.8" class="st5" width="1.2" height="1.1"/>
	<rect x="174" y="89.5" class="st5" width="1.2" height="4.6"/>
	<path class="st5" d="M180.8,90.5c0-0.2-0.1-0.4-0.2-0.5c-0.1-0.2-0.3-0.3-0.5-0.4c-0.2-0.1-0.4-0.1-0.7-0.1c-0.6,0-1.1,0.3-1.5,0.8
		v-0.7h-1.1v4.6h1.2v-2.1c0-0.5,0-0.8,0.1-1c0-0.2,0.1-0.4,0.3-0.5c0.2-0.1,0.4-0.2,0.6-0.2c0.1,0,0.3,0,0.4,0.1
		c0.2,0,0.2,0.2,0.3,0.3c0.1,0.2,0.1,0.5,0.1,1v2.3h1.1v-2.8C180.9,91,180.8,90.7,180.8,90.5z"/>
	<path class="st5" d="M184.3,93.3c-0.1,0-0.2,0-0.2-0.1S184,93.1,184,93c0-0.1,0-0.3,0-0.7v-1.8h0.8v-0.9h-0.9V88l-1.2,0.7v0.9h-0.6
		v1h0.6v2c0,0.4,0,0.7,0,0.8c0.1,0.2,0.1,0.4,0.2,0.5c0.1,0.1,0.2,0.2,0.4,0.3c0.2,0.1,0.4,0.1,0.6,0.1c0.4,0,0.7-0.1,1-0.2
		l-0.1-0.9C184.6,93.3,184.4,93.3,184.3,93.3z"/>
	<path class="st5" d="M189.1,90c-0.4-0.5-0.9-0.7-1.6-0.7c-0.6,0-1.1,0.2-1.5,0.6c-0.4,0.5-0.6,1-0.6,1.8c0,0.7,0.2,1.2,0.5,1.6
		c0.4,0.5,1,0.8,1.8,0.8c0.5,0,1-0.1,1.3-0.3c0.3-0.2,0.5-0.6,0.7-1l-1.2-0.2c-0.1,0.3-0.2,0.4-0.3,0.4c-0.2,0.1-0.3,0.2-0.5,0.2
		c-0.3,0-0.5-0.1-0.7-0.3c-0.2-0.2-0.3-0.4-0.3-0.8h3C189.7,91.1,189.5,90.4,189.1,90z M186.7,91.4c0-0.3,0.1-0.6,0.3-0.8
		c0.2-0.2,0.4-0.3,0.7-0.3c0.2,0,0.4,0.1,0.6,0.3c0.2,0.2,0.3,0.5,0.3,0.8H186.7z"/>
	<rect x="191.2" y="87.8" class="st5" width="1.2" height="6.3"/>
	<rect x="194.1" y="87.8" class="st5" width="1.2" height="6.3"/>
	<rect x="197" y="89.5" class="st5" width="1.2" height="4.6"/>
	<rect x="197" y="87.8" class="st5" width="1.2" height="1.1"/>
	<path class="st5" d="M199.8,94.4L199.8,94.4C199.8,94.4,199.8,94.4,199.8,94.4C199.8,94.4,199.8,94.4,199.8,94.4z"/>
	<path class="st5" d="M199.8,94.4L199.8,94.4C199.7,94.5,199.7,94.5,199.8,94.4z"/>
	<path class="st5" d="M202.9,90c-0.4-0.5-0.8-0.7-1.4-0.7c-0.6,0-1,0.2-1.4,0.6c-0.4,0.5-0.6,1-0.6,1.8c0,0.6,0.1,1.1,0.4,1.5
		c0.4,0.5,0.9,0.8,1.5,0.8c0.6,0,1-0.2,1.4-0.7V94c0,0.3-0.1,0.5-0.1,0.6c0,0.1-0.1,0.2-0.2,0.3c-0.1,0.1-0.4,0.1-0.7,0.1
		c-0.2,0-0.4,0-0.5-0.1c-0.1,0-0.2-0.1-0.2-0.3l-1.3-0.2c0,0.4,0.2,0.7,0.5,1c0.3,0.3,0.8,0.4,1.6,0.4c0.4,0,0.8,0,1-0.1
		c0.2-0.1,0.4-0.2,0.6-0.4c0.2-0.1,0.3-0.3,0.4-0.6c0.1-0.3,0.1-0.7,0.1-1.2v-4.1h-1.1V90z M202.5,92.8c-0.2,0.2-0.4,0.3-0.7,0.3
		c-0.3,0-0.5,0-0.7-0.3c-0.2-0.3-0.3-0.6-0.3-1.1c0-0.4,0.1-0.8,0.3-1c0.2-0.2,0.4-0.3,0.7-0.3c0.3,0,0.5,0.1,0.7,0.3
		c0.2,0.3,0.3,0.6,0.3,1.1C202.8,92.2,202.7,92.6,202.5,92.8z"/>
	<path class="st5" d="M208.9,90c-0.4-0.5-0.9-0.7-1.6-0.7c-0.6,0-1.1,0.2-1.5,0.6c-0.4,0.5-0.6,1-0.6,1.8c0,0.7,0.2,1.2,0.5,1.6
		c0.4,0.5,1,0.8,1.8,0.8c0.5,0,1-0.1,1.3-0.3c0.3-0.2,0.5-0.6,0.7-1l-1.2-0.2c-0.1,0.3-0.2,0.4-0.3,0.4c-0.2,0.1-0.3,0.2-0.5,0.2
		c-0.3,0-0.5-0.1-0.7-0.3c-0.2-0.2-0.3-0.4-0.3-0.8h3C209.5,91.1,209.3,90.4,208.9,90z M206.5,91.4c0-0.3,0.1-0.6,0.3-0.8
		c0.2-0.2,0.4-0.3,0.7-0.3c0.2,0,0.4,0.1,0.6,0.3c0.2,0.2,0.3,0.5,0.3,0.8H206.5z"/>
	<path class="st5" d="M214.8,90c-0.1-0.2-0.3-0.3-0.5-0.4c-0.2-0.1-0.4-0.1-0.7-0.1c-0.6,0-1.1,0.3-1.5,0.8v-0.7H211v4.6h1.1v-2.1
		c0-0.5,0-0.8,0.1-1c0-0.2,0.1-0.4,0.3-0.5c0.2-0.1,0.4-0.2,0.6-0.2c0.1,0,0.3,0,0.4,0.1c0.2,0,0.2,0.2,0.3,0.3
		c0.1,0.2,0.1,0.5,0.1,1v2.3h1.2v-2.8c0-0.3-0.1-0.6-0.1-0.8S214.9,90.1,214.8,90z"/>
	<path class="st5" d="M218.7,90.4c0.3,0,0.4,0.1,0.6,0.2c0.2,0.1,0.3,0.3,0.3,0.5l1.2-0.2c-0.2-0.5-0.4-0.9-0.8-1.2
		c-0.3-0.3-0.7-0.4-1.3-0.4c-0.7,0-1.2,0.2-1.6,0.6c-0.4,0.5-0.6,1-0.6,1.8c0,0.7,0.2,1.3,0.6,1.7c0.4,0.4,0.9,0.6,1.6,0.6
		c0.6,0,1.1-0.1,1.4-0.4c0.3-0.2,0.6-0.7,0.7-1.2l-1.2-0.2c-0.1,0.3-0.2,0.6-0.3,0.7c-0.2,0.1-0.4,0.2-0.6,0.2
		c-0.3,0-0.5-0.1-0.7-0.3c-0.2-0.2-0.3-0.6-0.3-1.1c0-0.4,0.1-0.8,0.3-1S218.4,90.4,218.7,90.4z"/>
	<path class="st5" d="M225.3,90c-0.4-0.5-0.9-0.7-1.6-0.7c-0.6,0-1.1,0.2-1.5,0.6c-0.4,0.5-0.6,1-0.6,1.8c0,0.7,0.2,1.2,0.5,1.6
		c0.4,0.5,1,0.8,1.8,0.8c0.5,0,1-0.1,1.3-0.3c0.3-0.2,0.5-0.6,0.7-1l-1.2-0.2c-0.1,0.3-0.2,0.4-0.3,0.4c-0.2,0.1-0.3,0.2-0.5,0.2
		c-0.3,0-0.5-0.1-0.7-0.3c-0.2-0.2-0.3-0.4-0.3-0.8h3C225.9,91.1,225.7,90.4,225.3,90z M222.8,91.4c0-0.3,0.1-0.6,0.3-0.8
		c0.2-0.2,0.4-0.3,0.7-0.3c0.2,0,0.4,0.1,0.6,0.3c0.2,0.2,0.3,0.5,0.3,0.8H222.8z"/>
	<path class="st5" d="M230.9,91.6c-0.2-0.2-0.7-0.4-1.3-0.5c-0.6-0.1-1-0.2-1.1-0.3c-0.1,0-0.1-0.1-0.1-0.2c0-0.1,0-0.1,0.1-0.2
		c0.2-0.1,0.4-0.1,0.7-0.1c0.3,0,0.5,0,0.6,0.1c0.2,0.1,0.3,0.2,0.3,0.4l1.1-0.2c-0.1-0.4-0.3-0.7-0.6-0.9s-0.8-0.3-1.4-0.3
		c-0.7,0-1.2,0.1-1.5,0.4c-0.3,0.3-0.5,0.6-0.5,1c0,0.4,0.1,0.8,0.5,1c0.2,0.2,0.8,0.4,1.8,0.6c0.2,0.1,0.3,0.1,0.4,0.2
		c0.1,0,0.1,0.1,0.1,0.2c0,0.1-0.1,0.2-0.2,0.3c-0.2,0.1-0.4,0.2-0.7,0.2c-0.3,0-0.5-0.1-0.7-0.2c-0.1-0.1-0.2-0.3-0.3-0.5l-1.2,0.2
		c0.1,0.4,0.4,0.8,0.9,0.9c0.4,0.3,0.9,0.4,1.5,0.4c0.6,0,1.2-0.2,1.5-0.5s0.5-0.7,0.5-1.1C231.3,92.1,231.2,91.8,230.9,91.6z"/>
	<rect x="235.5" y="87.8" class="st5" width="1.2" height="1.1"/>
	<path class="st5" d="M235.6,93.9c0,0.4,0,0.6,0,0.7c-0.1,0.1-0.1,0.1-0.2,0.2c-0.1,0.1-0.2,0.1-0.3,0.1c0,0,0,0-0.1,0s-0.1,0-0.2,0
		l-0.2,1c0.1,0,0.2,0.1,0.4,0.1s0.3,0,0.4,0c0.3,0,0.6-0.1,0.8-0.2c0.2-0.2,0.3-0.4,0.4-0.6c0.1-0.2,0.1-0.6,0.1-1.2v-4.4h-1.1V93.9
		z"/>
	<path class="st5" d="M241.2,91.4c0,0.6,0,1-0.1,1.2c0,0.1-0.1,0.3-0.3,0.4c-0.2,0.1-0.4,0.2-0.6,0.2c-0.1,0-0.3,0-0.4-0.1
		c-0.1,0-0.2-0.2-0.2-0.3c-0.1-0.2-0.1-0.6-0.1-1.2v-2.1h-1.2v2.9c0,0.4,0.1,0.8,0.2,1c0.1,0.3,0.3,0.5,0.5,0.6
		c0.2,0.1,0.5,0.2,0.8,0.2s0.6-0.1,0.9-0.2c0.3-0.2,0.5-0.4,0.7-0.6v0.7h1v-4.6h-1.2V91.4z"/>
	<path class="st5" d="M245.8,89.5c-0.1,0.1-0.3,0.3-0.5,0.6v-0.6h-1.1v4.6h1.1v-1.5c0-0.7,0-1.3,0.1-1.5c0.1-0.2,0.2-0.4,0.3-0.5
		c0.1-0.1,0.2-0.1,0.4-0.1s0.4,0.1,0.6,0.2l0.4-1.1c-0.3-0.1-0.5-0.2-0.8-0.2C246.1,89.4,246,89.4,245.8,89.5z"/>
	<rect x="248" y="87.8" class="st5" width="1.2" height="1.1"/>
	<rect x="248" y="89.5" class="st5" width="1.2" height="4.6"/>
	<path class="st5" d="M253.8,87.7V90c-0.3-0.4-0.8-0.6-1.3-0.6c-0.6,0-1,0.2-1.4,0.6c-0.3,0.4-0.5,1-0.5,1.8c0,0.8,0.2,1.4,0.6,1.8
		c0.3,0.4,0.8,0.6,1.3,0.6c0.3,0,0.5-0.1,0.8-0.2c0.3-0.1,0.5-0.3,0.7-0.6v0.7h1v-6.4H253.8z M253.6,92.9c-0.2,0.3-0.4,0.4-0.7,0.4
		c-0.3,0-0.6-0.2-0.8-0.5c-0.1-0.3-0.2-0.6-0.2-1.1c0-0.4,0.1-0.8,0.3-1s0.4-0.3,0.7-0.3c0.3,0,0.5,0.1,0.7,0.3
		c0.2,0.2,0.3,0.6,0.3,1.1S253.8,92.7,253.6,92.9z"/>
	<rect x="256.7" y="89.5" class="st5" width="1.2" height="4.6"/>
	<rect x="256.7" y="87.8" class="st5" width="1.2" height="1.1"/>
	<path class="st5" d="M262.7,90.3c-0.2-0.3-0.4-0.5-0.6-0.6s-0.5-0.2-0.8-0.2c-0.6,0-1,0.2-1.4,0.6c-0.4,0.4-0.6,1-0.6,1.7
		c0,0.7,0.2,1.3,0.6,1.8c0.4,0.4,0.8,0.6,1.3,0.6c0.3,0,0.6-0.1,0.8-0.2c0.2-0.1,0.4-0.3,0.6-0.5v2.3v0.1h1.2v-6.3h-1.1V90.3z
		 M262.3,92.9c-0.2,0.3-0.4,0.4-0.7,0.4c-0.3,0-0.5-0.1-0.7-0.3s-0.3-0.6-0.3-1.1s0.1-0.9,0.3-1.1c0.2-0.2,0.4-0.3,0.7-0.3
		s0.5,0.1,0.7,0.3c0.2,0.2,0.3,0.5,0.3,1S262.5,92.6,262.3,92.9z"/>
	<path class="st5" d="M268.2,91.4c0,0.6,0,1-0.1,1.2c0,0.1-0.1,0.3-0.3,0.4c-0.2,0.1-0.4,0.2-0.6,0.2c-0.1,0-0.3,0-0.4-0.1
		c-0.1,0-0.2-0.2-0.2-0.3c-0.1-0.2-0.1-0.6-0.1-1.2v-2.1h-1.2v2.9c0,0.4,0.1,0.8,0.2,1c0.1,0.3,0.3,0.5,0.5,0.6
		c0.2,0.1,0.5,0.2,0.8,0.2s0.6-0.1,0.9-0.2c0.3-0.2,0.5-0.4,0.7-0.6v0.7h1v-4.6h-1.2V91.4z"/>
	<path class="st5" d="M274.5,90c-0.4-0.5-0.9-0.7-1.6-0.7c-0.6,0-1.1,0.2-1.5,0.6c-0.4,0.5-0.6,1-0.6,1.8c0,0.7,0.2,1.2,0.5,1.6
		c0.4,0.5,1,0.8,1.8,0.8c0.5,0,1-0.1,1.3-0.3c0.3-0.2,0.5-0.6,0.7-1l-1.2-0.2c-0.1,0.3-0.2,0.4-0.3,0.4c-0.2,0.1-0.3,0.2-0.5,0.2
		c-0.3,0-0.5-0.1-0.7-0.3c-0.2-0.2-0.3-0.4-0.3-0.8h3C275.1,91.1,274.9,90.4,274.5,90z M272,91.4c0-0.3,0.1-0.6,0.3-0.8
		c0.2-0.2,0.4-0.3,0.7-0.3c0.2,0,0.4,0.1,0.6,0.3c0.2,0.2,0.3,0.5,0.3,0.8H272z"/>
	<path class="st5" d="M280.1,91.6c-0.2-0.2-0.7-0.4-1.3-0.5c-0.6-0.1-1-0.2-1.1-0.3c-0.1,0-0.1-0.1-0.1-0.2c0-0.1,0-0.1,0.1-0.2
		c0.2-0.1,0.4-0.1,0.7-0.1s0.5,0,0.6,0.1c0.2,0.1,0.3,0.2,0.3,0.4l1.1-0.2c-0.1-0.4-0.3-0.7-0.6-0.9s-0.8-0.3-1.4-0.3
		c-0.7,0-1.2,0.1-1.5,0.4c-0.3,0.3-0.5,0.6-0.5,1c0,0.4,0.1,0.8,0.5,1c0.2,0.2,0.8,0.4,1.8,0.6c0.2,0.1,0.3,0.1,0.4,0.2
		c0.1,0,0.1,0.1,0.1,0.2c0,0.1-0.1,0.2-0.2,0.3c-0.2,0.1-0.4,0.2-0.7,0.2c-0.3,0-0.5-0.1-0.7-0.2c-0.1-0.1-0.2-0.3-0.3-0.5l-1.2,0.2
		c0.1,0.4,0.4,0.8,0.9,0.9c0.4,0.3,0.9,0.4,1.5,0.4c0.6,0,1.2-0.2,1.5-0.5s0.5-0.7,0.5-1.1C280.5,92.1,280.4,91.8,280.1,91.6z"/>
</g>
</svg>
