<svg xmlns="http://www.w3.org/2000/svg" xmlns:xlink="http://www.w3.org/1999/xlink" width="1200" zoomAndPan="magnify" viewBox="0 0 900 472.499986" height="630" preserveAspectRatio="xMidYMid meet" version="1.0"><defs><g/><clipPath id="f76be79127"><path d="M 0.476562 0 L 899.523438 0 L 899.523438 472 L 0.476562 472 Z M 0.476562 0 " clip-rule="nonzero"/></clipPath><clipPath id="125b84c10c"><path d="M 0.476562 0 L 899.523438 0 L 899.523438 472 L 0.476562 472 Z M 0.476562 0 " clip-rule="nonzero"/></clipPath><radialGradient gradientTransform="matrix(1, 0, 0, 1, 0.475701, -213.524033)" gradientUnits="userSpaceOnUse" r="1271.44782" cx="0" id="77c401bd00" cy="0" fx="0" fy="0"><stop stop-opacity="1" stop-color="rgb(10.350037%, 10.314941%, 18.154907%)" offset="0"/><stop stop-opacity="1" stop-color="rgb(10.577393%, 10.490417%, 18.330383%)" offset="0.0078125"/><stop stop-opacity="1" stop-color="rgb(10.72998%, 10.606384%, 18.44635%)" offset="0.0117188"/><stop stop-opacity="1" stop-color="rgb(10.881042%, 10.722351%, 18.562317%)" offset="0.015625"/><stop stop-opacity="1" stop-color="rgb(11.032104%, 10.839844%, 18.67981%)" offset="0.0195312"/><stop stop-opacity="1" stop-color="rgb(11.184692%, 10.955811%, 18.795776%)" offset="0.0234375"/><stop stop-opacity="1" stop-color="rgb(11.335754%, 11.071777%, 18.911743%)" offset="0.0273438"/><stop stop-opacity="1" stop-color="rgb(11.488342%, 11.187744%, 19.02771%)" offset="0.03125"/><stop stop-opacity="1" stop-color="rgb(11.639404%, 11.305237%, 19.145203%)" offset="0.0351562"/><stop stop-opacity="1" stop-color="rgb(11.790466%, 11.421204%, 19.261169%)" offset="0.0390625"/><stop stop-opacity="1" stop-color="rgb(11.943054%, 11.53717%, 19.377136%)" offset="0.0429688"/><stop stop-opacity="1" stop-color="rgb(12.094116%, 11.654663%, 19.494629%)" offset="0.046875"/><stop stop-opacity="1" stop-color="rgb(12.245178%, 11.77063%, 19.610596%)" offset="0.0507812"/><stop stop-opacity="1" stop-color="rgb(12.397766%, 11.886597%, 19.726562%)" offset="0.0546875"/><stop stop-opacity="1" stop-color="rgb(12.548828%, 12.002563%, 19.844055%)" offset="0.0585938"/><stop stop-opacity="1" stop-color="rgb(12.701416%, 12.120056%, 19.960022%)" offset="0.0625"/><stop stop-opacity="1" stop-color="rgb(12.852478%, 12.236023%, 20.075989%)" offset="0.0664062"/><stop stop-opacity="1" stop-color="rgb(13.00354%, 12.35199%, 20.191956%)" offset="0.0703125"/><stop stop-opacity="1" stop-color="rgb(13.156128%, 12.469482%, 20.309448%)" offset="0.0742188"/><stop stop-opacity="1" stop-color="rgb(13.30719%, 12.585449%, 20.425415%)" offset="0.078125"/><stop stop-opacity="1" stop-color="rgb(13.459778%, 12.701416%, 20.541382%)" offset="0.0820312"/><stop stop-opacity="1" stop-color="rgb(13.61084%, 12.818909%, 20.658875%)" offset="0.0859375"/><stop stop-opacity="1" stop-color="rgb(13.761902%, 12.934875%, 20.774841%)" offset="0.0898438"/><stop stop-opacity="1" stop-color="rgb(13.91449%, 13.050842%, 20.890808%)" offset="0.09375"/><stop stop-opacity="1" stop-color="rgb(14.065552%, 13.166809%, 21.006775%)" offset="0.0976562"/><stop stop-opacity="1" stop-color="rgb(14.216614%, 13.284302%, 21.124268%)" offset="0.101562"/><stop stop-opacity="1" stop-color="rgb(14.369202%, 13.400269%, 21.240234%)" offset="0.105469"/><stop stop-opacity="1" stop-color="rgb(14.520264%, 13.516235%, 21.356201%)" offset="0.109375"/><stop stop-opacity="1" stop-color="rgb(14.672852%, 13.633728%, 21.473694%)" offset="0.113281"/><stop stop-opacity="1" stop-color="rgb(14.823914%, 13.749695%, 21.589661%)" offset="0.117188"/><stop stop-opacity="1" stop-color="rgb(14.974976%, 13.865662%, 21.705627%)" offset="0.121094"/><stop stop-opacity="1" stop-color="rgb(15.127563%, 13.981628%, 21.821594%)" offset="0.125"/><stop stop-opacity="1" stop-color="rgb(15.278625%, 14.099121%, 21.939087%)" offset="0.128906"/><stop stop-opacity="1" stop-color="rgb(15.429688%, 14.215088%, 22.055054%)" offset="0.132812"/><stop stop-opacity="1" stop-color="rgb(15.582275%, 14.331055%, 22.171021%)" offset="0.136719"/><stop stop-opacity="1" stop-color="rgb(15.733337%, 14.448547%, 22.288513%)" offset="0.140625"/><stop stop-opacity="1" stop-color="rgb(15.885925%, 14.564514%, 22.40448%)" offset="0.144531"/><stop stop-opacity="1" stop-color="rgb(16.036987%, 14.680481%, 22.520447%)" offset="0.148438"/><stop stop-opacity="1" stop-color="rgb(16.188049%, 14.796448%, 22.636414%)" offset="0.152344"/><stop stop-opacity="1" stop-color="rgb(16.340637%, 14.91394%, 22.753906%)" offset="0.15625"/><stop stop-opacity="1" stop-color="rgb(16.491699%, 15.029907%, 22.869873%)" offset="0.160156"/><stop stop-opacity="1" stop-color="rgb(16.642761%, 15.145874%, 22.98584%)" offset="0.164062"/><stop stop-opacity="1" stop-color="rgb(16.795349%, 15.263367%, 23.103333%)" offset="0.167969"/><stop stop-opacity="1" stop-color="rgb(16.946411%, 15.379333%, 23.219299%)" offset="0.171875"/><stop stop-opacity="1" stop-color="rgb(17.098999%, 15.4953%, 23.335266%)" offset="0.175781"/><stop stop-opacity="1" stop-color="rgb(17.250061%, 15.611267%, 23.451233%)" offset="0.179688"/><stop stop-opacity="1" stop-color="rgb(17.401123%, 15.72876%, 23.568726%)" offset="0.183594"/><stop stop-opacity="1" stop-color="rgb(17.553711%, 15.844727%, 23.684692%)" offset="0.1875"/><stop stop-opacity="1" stop-color="rgb(17.704773%, 15.960693%, 23.800659%)" offset="0.191406"/><stop stop-opacity="1" stop-color="rgb(17.857361%, 16.078186%, 23.918152%)" offset="0.195312"/><stop stop-opacity="1" stop-color="rgb(18.008423%, 16.194153%, 24.034119%)" offset="0.199219"/><stop stop-opacity="1" stop-color="rgb(18.159485%, 16.31012%, 24.150085%)" offset="0.203125"/><stop stop-opacity="1" stop-color="rgb(18.312073%, 16.426086%, 24.266052%)" offset="0.207031"/><stop stop-opacity="1" stop-color="rgb(18.463135%, 16.543579%, 24.383545%)" offset="0.210938"/><stop stop-opacity="1" stop-color="rgb(18.614197%, 16.659546%, 24.499512%)" offset="0.214844"/><stop stop-opacity="1" stop-color="rgb(18.766785%, 16.775513%, 24.615479%)" offset="0.21875"/><stop stop-opacity="1" stop-color="rgb(18.917847%, 16.893005%, 24.732971%)" offset="0.222656"/><stop stop-opacity="1" stop-color="rgb(19.070435%, 17.008972%, 24.848938%)" offset="0.226562"/><stop stop-opacity="1" stop-color="rgb(19.221497%, 17.124939%, 24.964905%)" offset="0.230469"/><stop stop-opacity="1" stop-color="rgb(19.372559%, 17.240906%, 25.080872%)" offset="0.234375"/><stop stop-opacity="1" stop-color="rgb(19.525146%, 17.358398%, 25.198364%)" offset="0.238281"/><stop stop-opacity="1" stop-color="rgb(19.676208%, 17.474365%, 25.314331%)" offset="0.242188"/><stop stop-opacity="1" stop-color="rgb(19.827271%, 17.590332%, 25.430298%)" offset="0.246094"/><stop stop-opacity="1" stop-color="rgb(19.979858%, 17.707825%, 25.547791%)" offset="0.25"/><stop stop-opacity="1" stop-color="rgb(20.207214%, 17.881775%, 25.721741%)" offset="0.253906"/><stop stop-opacity="1" stop-color="rgb(20.510864%, 18.113708%, 25.953674%)" offset="0.261719"/><stop stop-opacity="1" stop-color="rgb(20.812988%, 18.347168%, 26.187134%)" offset="0.269531"/><stop stop-opacity="1" stop-color="rgb(21.116638%, 18.580627%, 26.420593%)" offset="0.277344"/><stop stop-opacity="1" stop-color="rgb(21.420288%, 18.812561%, 26.652527%)" offset="0.285156"/><stop stop-opacity="1" stop-color="rgb(21.723938%, 19.046021%, 26.885986%)" offset="0.292969"/><stop stop-opacity="1" stop-color="rgb(22.026062%, 19.277954%, 27.11792%)" offset="0.300781"/><stop stop-opacity="1" stop-color="rgb(22.329712%, 19.511414%, 27.351379%)" offset="0.308594"/><stop stop-opacity="1" stop-color="rgb(22.633362%, 19.744873%, 27.584839%)" offset="0.316406"/><stop stop-opacity="1" stop-color="rgb(22.937012%, 19.976807%, 27.816772%)" offset="0.324219"/><stop stop-opacity="1" stop-color="rgb(23.239136%, 20.210266%, 28.050232%)" offset="0.332031"/><stop stop-opacity="1" stop-color="rgb(23.542786%, 20.4422%, 28.282166%)" offset="0.339844"/><stop stop-opacity="1" stop-color="rgb(23.846436%, 20.675659%, 28.515625%)" offset="0.347656"/><stop stop-opacity="1" stop-color="rgb(24.150085%, 20.907593%, 28.747559%)" offset="0.355469"/><stop stop-opacity="1" stop-color="rgb(24.452209%, 21.141052%, 28.981018%)" offset="0.363281"/><stop stop-opacity="1" stop-color="rgb(24.755859%, 21.374512%, 29.214478%)" offset="0.371094"/><stop stop-opacity="1" stop-color="rgb(25.059509%, 21.606445%, 29.446411%)" offset="0.378906"/><stop stop-opacity="1" stop-color="rgb(25.363159%, 21.839905%, 29.679871%)" offset="0.386719"/><stop stop-opacity="1" stop-color="rgb(25.665283%, 22.071838%, 29.911804%)" offset="0.394531"/><stop stop-opacity="1" stop-color="rgb(25.968933%, 22.305298%, 30.145264%)" offset="0.402344"/><stop stop-opacity="1" stop-color="rgb(26.272583%, 22.537231%, 30.377197%)" offset="0.410156"/><stop stop-opacity="1" stop-color="rgb(26.576233%, 22.770691%, 30.610657%)" offset="0.417969"/><stop stop-opacity="1" stop-color="rgb(26.879883%, 23.00415%, 30.844116%)" offset="0.425781"/><stop stop-opacity="1" stop-color="rgb(27.182007%, 23.236084%, 31.07605%)" offset="0.433594"/><stop stop-opacity="1" stop-color="rgb(27.485657%, 23.469543%, 31.309509%)" offset="0.441406"/><stop stop-opacity="1" stop-color="rgb(27.789307%, 23.701477%, 31.541443%)" offset="0.449219"/><stop stop-opacity="1" stop-color="rgb(28.092957%, 23.934937%, 31.774902%)" offset="0.457031"/><stop stop-opacity="1" stop-color="rgb(28.395081%, 24.16687%, 32.006836%)" offset="0.464844"/><stop stop-opacity="1" stop-color="rgb(28.69873%, 24.40033%, 32.240295%)" offset="0.472656"/><stop stop-opacity="1" stop-color="rgb(29.00238%, 24.633789%, 32.473755%)" offset="0.480469"/><stop stop-opacity="1" stop-color="rgb(29.30603%, 24.865723%, 32.705688%)" offset="0.488281"/><stop stop-opacity="1" stop-color="rgb(29.608154%, 25.099182%, 32.939148%)" offset="0.496094"/><stop stop-opacity="1" stop-color="rgb(29.83551%, 25.273132%, 33.113098%)" offset="0.503906"/><stop stop-opacity="1" stop-color="rgb(29.988098%, 25.390625%, 33.230591%)" offset="0.507812"/><stop stop-opacity="1" stop-color="rgb(30.13916%, 25.506592%, 33.346558%)" offset="0.511719"/><stop stop-opacity="1" stop-color="rgb(30.291748%, 25.622559%, 33.462524%)" offset="0.515625"/><stop stop-opacity="1" stop-color="rgb(30.44281%, 25.738525%, 33.578491%)" offset="0.519531"/><stop stop-opacity="1" stop-color="rgb(30.593872%, 25.856018%, 33.695984%)" offset="0.523438"/><stop stop-opacity="1" stop-color="rgb(30.74646%, 25.971985%, 33.811951%)" offset="0.527344"/><stop stop-opacity="1" stop-color="rgb(30.897522%, 26.087952%, 33.927917%)" offset="0.53125"/><stop stop-opacity="1" stop-color="rgb(31.05011%, 26.205444%, 34.04541%)" offset="0.535156"/><stop stop-opacity="1" stop-color="rgb(31.201172%, 26.321411%, 34.161377%)" offset="0.539062"/><stop stop-opacity="1" stop-color="rgb(31.352234%, 26.437378%, 34.277344%)" offset="0.542969"/><stop stop-opacity="1" stop-color="rgb(31.504822%, 26.553345%, 34.394836%)" offset="0.546875"/><stop stop-opacity="1" stop-color="rgb(31.655884%, 26.670837%, 34.510803%)" offset="0.550781"/><stop stop-opacity="1" stop-color="rgb(31.806946%, 26.786804%, 34.62677%)" offset="0.554688"/><stop stop-opacity="1" stop-color="rgb(31.959534%, 26.902771%, 34.742737%)" offset="0.558594"/><stop stop-opacity="1" stop-color="rgb(32.110596%, 27.020264%, 34.860229%)" offset="0.5625"/><stop stop-opacity="1" stop-color="rgb(32.263184%, 27.13623%, 34.976196%)" offset="0.566406"/><stop stop-opacity="1" stop-color="rgb(32.414246%, 27.252197%, 35.092163%)" offset="0.570312"/><stop stop-opacity="1" stop-color="rgb(32.565308%, 27.36969%, 35.209656%)" offset="0.574219"/><stop stop-opacity="1" stop-color="rgb(32.717896%, 27.485657%, 35.325623%)" offset="0.578125"/><stop stop-opacity="1" stop-color="rgb(32.868958%, 27.601624%, 35.441589%)" offset="0.582031"/><stop stop-opacity="1" stop-color="rgb(33.02002%, 27.71759%, 35.557556%)" offset="0.585938"/><stop stop-opacity="1" stop-color="rgb(33.172607%, 27.835083%, 35.675049%)" offset="0.589844"/><stop stop-opacity="1" stop-color="rgb(33.323669%, 27.95105%, 35.791016%)" offset="0.59375"/><stop stop-opacity="1" stop-color="rgb(33.476257%, 28.067017%, 35.906982%)" offset="0.597656"/><stop stop-opacity="1" stop-color="rgb(33.627319%, 28.184509%, 36.024475%)" offset="0.601562"/><stop stop-opacity="1" stop-color="rgb(33.778381%, 28.300476%, 36.140442%)" offset="0.605469"/><stop stop-opacity="1" stop-color="rgb(33.930969%, 28.416443%, 36.256409%)" offset="0.609375"/><stop stop-opacity="1" stop-color="rgb(34.082031%, 28.53241%, 36.372375%)" offset="0.613281"/><stop stop-opacity="1" stop-color="rgb(34.233093%, 28.649902%, 36.489868%)" offset="0.617188"/><stop stop-opacity="1" stop-color="rgb(34.385681%, 28.765869%, 36.605835%)" offset="0.621094"/><stop stop-opacity="1" stop-color="rgb(34.536743%, 28.881836%, 36.721802%)" offset="0.625"/><stop stop-opacity="1" stop-color="rgb(34.764099%, 29.057312%, 36.897278%)" offset="0.628906"/><stop stop-opacity="1" stop-color="rgb(35.067749%, 29.289246%, 37.129211%)" offset="0.636719"/><stop stop-opacity="1" stop-color="rgb(35.371399%, 29.522705%, 37.362671%)" offset="0.644531"/><stop stop-opacity="1" stop-color="rgb(35.673523%, 29.754639%, 37.594604%)" offset="0.652344"/><stop stop-opacity="1" stop-color="rgb(35.977173%, 29.988098%, 37.828064%)" offset="0.660156"/><stop stop-opacity="1" stop-color="rgb(36.280823%, 30.220032%, 38.059998%)" offset="0.667969"/><stop stop-opacity="1" stop-color="rgb(36.584473%, 30.453491%, 38.293457%)" offset="0.675781"/><stop stop-opacity="1" stop-color="rgb(36.888123%, 30.686951%, 38.526917%)" offset="0.683594"/><stop stop-opacity="1" stop-color="rgb(37.190247%, 30.918884%, 38.75885%)" offset="0.691406"/><stop stop-opacity="1" stop-color="rgb(37.493896%, 31.152344%, 38.99231%)" offset="0.699219"/><stop stop-opacity="1" stop-color="rgb(37.797546%, 31.384277%, 39.224243%)" offset="0.707031"/><stop stop-opacity="1" stop-color="rgb(38.101196%, 31.617737%, 39.457703%)" offset="0.714844"/><stop stop-opacity="1" stop-color="rgb(38.40332%, 31.84967%, 39.689636%)" offset="0.722656"/><stop stop-opacity="1" stop-color="rgb(38.70697%, 32.08313%, 39.923096%)" offset="0.730469"/><stop stop-opacity="1" stop-color="rgb(39.01062%, 32.316589%, 40.156555%)" offset="0.738281"/><stop stop-opacity="1" stop-color="rgb(39.31427%, 32.548523%, 40.388489%)" offset="0.746094"/><stop stop-opacity="1" stop-color="rgb(39.541626%, 32.723999%, 40.563965%)" offset="0.753906"/><stop stop-opacity="1" stop-color="rgb(39.692688%, 32.839966%, 40.679932%)" offset="0.757812"/><stop stop-opacity="1" stop-color="rgb(39.84375%, 32.955933%, 40.795898%)" offset="0.761719"/><stop stop-opacity="1" stop-color="rgb(39.996338%, 33.073425%, 40.913391%)" offset="0.765625"/><stop stop-opacity="1" stop-color="rgb(40.1474%, 33.189392%, 41.029358%)" offset="0.769531"/><stop stop-opacity="1" stop-color="rgb(40.299988%, 33.305359%, 41.145325%)" offset="0.773438"/><stop stop-opacity="1" stop-color="rgb(40.45105%, 33.421326%, 41.262817%)" offset="0.777344"/><stop stop-opacity="1" stop-color="rgb(40.602112%, 33.538818%, 41.378784%)" offset="0.78125"/><stop stop-opacity="1" stop-color="rgb(40.7547%, 33.654785%, 41.494751%)" offset="0.785156"/><stop stop-opacity="1" stop-color="rgb(40.905762%, 33.770752%, 41.610718%)" offset="0.789062"/><stop stop-opacity="1" stop-color="rgb(41.05835%, 33.888245%, 41.72821%)" offset="0.792969"/><stop stop-opacity="1" stop-color="rgb(41.209412%, 34.004211%, 41.844177%)" offset="0.796875"/><stop stop-opacity="1" stop-color="rgb(41.360474%, 34.120178%, 41.960144%)" offset="0.800781"/><stop stop-opacity="1" stop-color="rgb(41.513062%, 34.237671%, 42.077637%)" offset="0.804688"/><stop stop-opacity="1" stop-color="rgb(41.664124%, 34.353638%, 42.193604%)" offset="0.808594"/><stop stop-opacity="1" stop-color="rgb(41.815186%, 34.469604%, 42.30957%)" offset="0.8125"/><stop stop-opacity="1" stop-color="rgb(42.042542%, 34.643555%, 42.483521%)" offset="0.816406"/><stop stop-opacity="1" stop-color="rgb(42.346191%, 34.877014%, 42.71698%)" offset="0.824219"/><stop stop-opacity="1" stop-color="rgb(42.649841%, 35.110474%, 42.950439%)" offset="0.832031"/><stop stop-opacity="1" stop-color="rgb(42.953491%, 35.342407%, 43.182373%)" offset="0.839844"/><stop stop-opacity="1" stop-color="rgb(43.255615%, 35.575867%, 43.415833%)" offset="0.847656"/><stop stop-opacity="1" stop-color="rgb(43.559265%, 35.8078%, 43.647766%)" offset="0.855469"/><stop stop-opacity="1" stop-color="rgb(43.862915%, 36.04126%, 43.881226%)" offset="0.863281"/><stop stop-opacity="1" stop-color="rgb(44.166565%, 36.273193%, 44.113159%)" offset="0.871094"/><stop stop-opacity="1" stop-color="rgb(44.393921%, 36.448669%, 44.288635%)" offset="0.878906"/><stop stop-opacity="1" stop-color="rgb(44.544983%, 36.564636%, 44.404602%)" offset="0.882812"/><stop stop-opacity="1" stop-color="rgb(44.697571%, 36.682129%, 44.522095%)" offset="0.886719"/><stop stop-opacity="1" stop-color="rgb(44.848633%, 36.798096%, 44.638062%)" offset="0.890625"/><stop stop-opacity="1" stop-color="rgb(44.999695%, 36.914062%, 44.754028%)" offset="0.894531"/><stop stop-opacity="1" stop-color="rgb(45.152283%, 37.030029%, 44.869995%)" offset="0.898438"/><stop stop-opacity="1" stop-color="rgb(45.303345%, 37.147522%, 44.987488%)" offset="0.902344"/><stop stop-opacity="1" stop-color="rgb(45.455933%, 37.263489%, 45.103455%)" offset="0.90625"/><stop stop-opacity="1" stop-color="rgb(45.683289%, 37.437439%, 45.277405%)" offset="0.910156"/><stop stop-opacity="1" stop-color="rgb(45.985413%, 37.670898%, 45.510864%)" offset="0.917969"/><stop stop-opacity="1" stop-color="rgb(46.289062%, 37.902832%, 45.742798%)" offset="0.925781"/><stop stop-opacity="1" stop-color="rgb(46.592712%, 38.136292%, 45.976257%)" offset="0.933594"/><stop stop-opacity="1" stop-color="rgb(46.820068%, 38.311768%, 46.151733%)" offset="0.941406"/><stop stop-opacity="1" stop-color="rgb(46.97113%, 38.427734%, 46.2677%)" offset="0.945312"/><stop stop-opacity="1" stop-color="rgb(47.123718%, 38.543701%, 46.383667%)" offset="0.949219"/><stop stop-opacity="1" stop-color="rgb(47.27478%, 38.659668%, 46.499634%)" offset="0.953125"/><stop stop-opacity="1" stop-color="rgb(47.502136%, 38.835144%, 46.67511%)" offset="0.957031"/><stop stop-opacity="1" stop-color="rgb(47.805786%, 39.067078%, 46.907043%)" offset="0.964844"/><stop stop-opacity="1" stop-color="rgb(48.033142%, 39.242554%, 47.08252%)" offset="0.972656"/><stop stop-opacity="1" stop-color="rgb(48.184204%, 39.358521%, 47.198486%)" offset="0.976562"/><stop stop-opacity="1" stop-color="rgb(48.41156%, 39.532471%, 47.372437%)" offset="0.980469"/><stop stop-opacity="1" stop-color="rgb(48.638916%, 39.707947%, 47.547913%)" offset="0.988281"/><stop stop-opacity="1" stop-color="rgb(48.866272%, 39.881897%, 47.721863%)" offset="0.992188"/><stop stop-opacity="1" stop-color="rgb(49.01886%, 39.99939%, 47.839355%)" offset="1"/></radialGradient><clipPath id="720fdd6eb0"><rect x="0" width="900" y="0" height="472"/></clipPath><clipPath id="5c1021b8b6"><rect x="0" width="533" y="0" height="75"/></clipPath></defs><g clip-path="url(#f76be79127)"><path fill="#ffffff" d="M 0.476562 0 L 899.523438 0 L 899.523438 472 L 0.476562 472 Z M 0.476562 0 " fill-opacity="1" fill-rule="nonzero"/><path fill="#ffffff" d="M 0.476562 0 L 899.523438 0 L 899.523438 472 L 0.476562 472 Z M 0.476562 0 " fill-opacity="1" fill-rule="nonzero"/><g transform="matrix(1, 0, 0, 1, 0.000000000000000111, 0)"><g clip-path="url(#720fdd6eb0)"><g clip-path="url(#125b84c10c)"><path fill="url(#77c401bd00)" d="M 0.476562 0 L 0.476562 472 L 899.523438 472 L 899.523438 0 Z M 0.476562 0 " fill-rule="nonzero"/></g></g></g></g><g transform="matrix(1, 0, 0, 1, 188, 198)"><g clip-path="url(#5c1021b8b6)"><g fill="#f4f5f7" fill-opacity="1"><g transform="translate(0.740318, 59.847498)"><g><path d="M 23.171875 0.3125 C 20.242188 0.3125 17.515625 -0.320312 14.984375 -1.59375 C 12.460938 -2.863281 10.265625 -4.570312 8.390625 -6.71875 C 6.515625 -8.875 5.050781 -11.296875 4 -13.984375 C 2.957031 -16.679688 2.4375 -19.472656 2.4375 -22.359375 C 2.4375 -25.359375 2.957031 -28.203125 4 -30.890625 C 5.050781 -33.585938 6.503906 -35.976562 8.359375 -38.0625 C 10.210938 -40.15625 12.398438 -41.796875 14.921875 -42.984375 C 17.453125 -44.171875 20.203125 -44.765625 23.171875 -44.765625 C 27.460938 -44.765625 31.003906 -43.863281 33.796875 -42.0625 C 36.597656 -40.269531 38.707031 -37.9375 40.125 -35.0625 L 35.8125 -32.0625 C 34.519531 -34.644531 32.742188 -36.5625 30.484375 -37.8125 C 28.234375 -39.0625 25.753906 -39.6875 23.046875 -39.6875 C 20.785156 -39.6875 18.738281 -39.207031 16.90625 -38.25 C 15.070312 -37.289062 13.492188 -35.988281 12.171875 -34.34375 C 10.859375 -32.695312 9.859375 -30.828125 9.171875 -28.734375 C 8.484375 -26.648438 8.140625 -24.476562 8.140625 -22.21875 C 8.140625 -19.84375 8.523438 -17.597656 9.296875 -15.484375 C 10.066406 -13.378906 11.160156 -11.523438 12.578125 -9.921875 C 14.003906 -8.316406 15.65625 -7.054688 17.53125 -6.140625 C 19.40625 -5.222656 21.429688 -4.765625 23.609375 -4.765625 C 26.148438 -4.765625 28.566406 -5.410156 30.859375 -6.703125 C 33.160156 -7.992188 35.332031 -9.972656 37.375 -12.640625 L 37.375 -6.828125 C 33.375 -2.066406 28.640625 0.3125 23.171875 0.3125 Z M 36.6875 -17.90625 L 27.109375 -17.90625 L 27.109375 -22.15625 L 41.453125 -22.15625 L 41.453125 0 L 36.6875 0 Z M 36.6875 -17.90625 "/></g></g></g><g fill="#f4f5f7" fill-opacity="1"><g transform="translate(54.832798, 59.847498)"><g><path d="M 1.875 -9.453125 C 1.875 -11.535156 2.46875 -13.335938 3.65625 -14.859375 C 4.851562 -16.390625 6.492188 -17.570312 8.578125 -18.40625 C 10.660156 -19.238281 13.082031 -19.65625 15.84375 -19.65625 C 17.300781 -19.65625 18.84375 -19.539062 20.46875 -19.3125 C 22.101562 -19.082031 23.546875 -18.738281 24.796875 -18.28125 L 24.796875 -20.65625 C 24.796875 -23.164062 24.039062 -25.140625 22.53125 -26.578125 C 21.03125 -28.015625 18.90625 -28.734375 16.15625 -28.734375 C 14.363281 -28.734375 12.640625 -28.410156 10.984375 -27.765625 C 9.335938 -27.117188 7.597656 -26.191406 5.765625 -24.984375 L 3.75 -28.859375 C 5.882812 -30.316406 8.015625 -31.410156 10.140625 -32.140625 C 12.265625 -32.878906 14.476562 -33.25 16.78125 -33.25 C 20.957031 -33.25 24.253906 -32.085938 26.671875 -29.765625 C 29.085938 -27.453125 30.296875 -24.226562 30.296875 -20.09375 L 30.296875 -6.265625 C 30.296875 -5.597656 30.429688 -5.101562 30.703125 -4.78125 C 30.972656 -4.46875 31.425781 -4.289062 32.0625 -4.25 L 32.0625 0 C 31.507812 0.0820312 31.035156 0.144531 30.640625 0.1875 C 30.242188 0.226562 29.921875 0.25 29.671875 0.25 C 28.378906 0.25 27.410156 -0.101562 26.765625 -0.8125 C 26.117188 -1.519531 25.753906 -2.269531 25.671875 -3.0625 L 25.546875 -5.140625 C 24.128906 -3.296875 22.269531 -1.875 19.96875 -0.875 C 17.675781 0.125 15.398438 0.625 13.140625 0.625 C 10.972656 0.625 9.035156 0.175781 7.328125 -0.71875 C 5.617188 -1.613281 4.28125 -2.820312 3.3125 -4.34375 C 2.351562 -5.875 1.875 -7.578125 1.875 -9.453125 Z M 23.171875 -7.140625 C 23.671875 -7.722656 24.066406 -8.316406 24.359375 -8.921875 C 24.648438 -9.523438 24.796875 -10.035156 24.796875 -10.453125 L 24.796875 -14.53125 C 23.503906 -15.03125 22.144531 -15.414062 20.71875 -15.6875 C 19.300781 -15.957031 17.90625 -16.09375 16.53125 -16.09375 C 13.726562 -16.09375 11.460938 -15.535156 9.734375 -14.421875 C 8.003906 -13.316406 7.140625 -11.804688 7.140625 -9.890625 C 7.140625 -8.847656 7.421875 -7.835938 7.984375 -6.859375 C 8.546875 -5.878906 9.378906 -5.070312 10.484375 -4.4375 C 11.585938 -3.8125 12.957031 -3.5 14.59375 -3.5 C 16.300781 -3.5 17.925781 -3.84375 19.46875 -4.53125 C 21.007812 -5.226562 22.242188 -6.097656 23.171875 -7.140625 Z M 23.171875 -7.140625 "/></g></g></g><g fill="#f4f5f7" fill-opacity="1"><g transform="translate(98.908147, 59.847498)"><g><path d="M 18.90625 0.625 C 16.445312 0.625 14.203125 0.175781 12.171875 -0.71875 C 10.148438 -1.613281 8.398438 -2.851562 6.921875 -4.4375 C 5.441406 -6.03125 4.289062 -7.847656 3.46875 -9.890625 C 2.65625 -11.929688 2.25 -14.101562 2.25 -16.40625 C 2.25 -19.488281 2.9375 -22.300781 4.3125 -24.84375 C 5.695312 -27.394531 7.640625 -29.429688 10.140625 -30.953125 C 12.648438 -32.484375 15.550781 -33.25 18.84375 -33.25 C 22.0625 -33.25 24.867188 -32.523438 27.265625 -31.078125 C 29.660156 -29.640625 31.445312 -27.710938 32.625 -25.296875 L 27.234375 -23.609375 C 26.398438 -25.148438 25.226562 -26.347656 23.71875 -27.203125 C 22.21875 -28.054688 20.550781 -28.484375 18.71875 -28.484375 C 16.71875 -28.484375 14.890625 -27.960938 13.234375 -26.921875 C 11.585938 -25.878906 10.285156 -24.445312 9.328125 -22.625 C 8.367188 -20.8125 7.890625 -18.738281 7.890625 -16.40625 C 7.890625 -14.101562 8.378906 -12.023438 9.359375 -10.171875 C 10.335938 -8.316406 11.648438 -6.84375 13.296875 -5.75 C 14.953125 -4.664062 16.78125 -4.125 18.78125 -4.125 C 20.070312 -4.125 21.3125 -4.351562 22.5 -4.8125 C 23.695312 -5.28125 24.742188 -5.898438 25.640625 -6.671875 C 26.535156 -7.441406 27.148438 -8.285156 27.484375 -9.203125 L 32.875 -7.578125 C 32.207031 -5.992188 31.191406 -4.582031 29.828125 -3.34375 C 28.472656 -2.113281 26.863281 -1.144531 25 -0.4375 C 23.144531 0.269531 21.113281 0.625 18.90625 0.625 Z M 18.90625 0.625 "/></g></g></g><g fill="#f4f5f7" fill-opacity="1"><g transform="translate(142.670469, 59.847498)"><g><path d="M 18.90625 0.625 C 16.445312 0.625 14.203125 0.175781 12.171875 -0.71875 C 10.148438 -1.613281 8.398438 -2.84375 6.921875 -4.40625 C 5.441406 -5.976562 4.289062 -7.785156 3.46875 -9.828125 C 2.65625 -11.867188 2.25 -14.039062 2.25 -16.34375 C 2.25 -19.425781 2.957031 -22.238281 4.375 -24.78125 C 5.800781 -27.332031 7.773438 -29.378906 10.296875 -30.921875 C 12.828125 -32.472656 15.71875 -33.25 18.96875 -33.25 C 22.269531 -33.25 25.140625 -32.460938 27.578125 -30.890625 C 30.015625 -29.328125 31.910156 -27.28125 33.265625 -24.75 C 34.628906 -22.226562 35.3125 -19.507812 35.3125 -16.59375 C 35.3125 -16.175781 35.300781 -15.769531 35.28125 -15.375 C 35.257812 -14.976562 35.226562 -14.675781 35.1875 -14.46875 L 8.078125 -14.46875 C 8.242188 -12.332031 8.835938 -10.441406 9.859375 -8.796875 C 10.878906 -7.148438 12.203125 -5.851562 13.828125 -4.90625 C 15.460938 -3.96875 17.21875 -3.5 19.09375 -3.5 C 21.09375 -3.5 22.976562 -4 24.75 -5 C 26.53125 -6.007812 27.753906 -7.328125 28.421875 -8.953125 L 33.1875 -7.640625 C 32.476562 -6.054688 31.421875 -4.632812 30.015625 -3.375 C 28.617188 -2.125 26.96875 -1.144531 25.0625 -0.4375 C 23.164062 0.269531 21.113281 0.625 18.90625 0.625 Z M 7.890625 -18.28125 L 30.171875 -18.28125 C 30.003906 -20.40625 29.398438 -22.28125 28.359375 -23.90625 C 27.316406 -25.539062 25.976562 -26.816406 24.34375 -27.734375 C 22.71875 -28.648438 20.925781 -29.109375 18.96875 -29.109375 C 17.050781 -29.109375 15.273438 -28.648438 13.640625 -27.734375 C 12.015625 -26.816406 10.691406 -25.539062 9.671875 -23.90625 C 8.648438 -22.28125 8.054688 -20.40625 7.890625 -18.28125 Z M 7.890625 -18.28125 "/></g></g></g><g fill="#f4f5f7" fill-opacity="1"><g transform="translate(189.062296, 59.847498)"><g><path d="M 53.71875 0 L 48.203125 0 L 48.203125 -18.28125 C 48.203125 -21.707031 47.648438 -24.234375 46.546875 -25.859375 C 45.441406 -27.484375 43.804688 -28.296875 41.640625 -28.296875 C 39.421875 -28.296875 37.414062 -27.492188 35.625 -25.890625 C 33.832031 -24.285156 32.5625 -22.207031 31.8125 -19.65625 L 31.8125 0 L 26.296875 0 L 26.296875 -18.28125 C 26.296875 -21.75 25.753906 -24.285156 24.671875 -25.890625 C 23.585938 -27.492188 21.957031 -28.296875 19.78125 -28.296875 C 17.613281 -28.296875 15.617188 -27.515625 13.796875 -25.953125 C 11.984375 -24.390625 10.703125 -22.3125 9.953125 -19.71875 L 9.953125 0 L 4.4375 0 L 4.4375 -32.6875 L 9.453125 -32.6875 L 9.453125 -25.671875 C 10.785156 -28.085938 12.515625 -29.953125 14.640625 -31.265625 C 16.773438 -32.585938 19.175781 -33.25 21.84375 -33.25 C 24.5625 -33.25 26.734375 -32.503906 28.359375 -31.015625 C 29.984375 -29.535156 30.988281 -27.628906 31.375 -25.296875 C 32.832031 -27.878906 34.601562 -29.847656 36.6875 -31.203125 C 38.769531 -32.566406 41.148438 -33.25 43.828125 -33.25 C 45.703125 -33.25 47.273438 -32.898438 48.546875 -32.203125 C 49.828125 -31.515625 50.84375 -30.554688 51.59375 -29.328125 C 52.34375 -28.097656 52.882812 -26.648438 53.21875 -24.984375 C 53.550781 -23.316406 53.71875 -21.5 53.71875 -19.53125 Z M 53.71875 0 "/></g></g></g><g fill="#f4f5f7" fill-opacity="1"><g transform="translate(256.302249, 59.847498)"><g/></g></g><g fill="#f4f5f7" fill-opacity="1"><g transform="translate(281.534639, 59.847498)"><g><path d="M 20.15625 -44.453125 L 22.03125 -44.453125 L 41.140625 0 L 38.8125 0 L 32.25 -15.34375 L 9.953125 -15.34375 L 3.375 0 L 1 0 Z M 31.5625 -17.21875 L 21.09375 -41.703125 L 10.578125 -17.21875 Z M 31.5625 -17.21875 "/></g></g></g><g fill="#f4f5f7" fill-opacity="1"><g transform="translate(331.119414, 59.847498)"><g><path d="M 15.34375 0 L 1.4375 -32.5625 L 3.75 -32.5625 L 16.40625 -2.5 L 29.109375 -32.5625 L 31.375 -32.5625 L 17.46875 0 Z M 15.34375 0 "/></g></g></g><g fill="#f4f5f7" fill-opacity="1"><g transform="translate(372.189628, 59.847498)"><g><path d="M 18.40625 0.625 C 16.238281 0.625 14.191406 0.1875 12.265625 -0.6875 C 10.347656 -1.5625 8.679688 -2.78125 7.265625 -4.34375 C 5.847656 -5.914062 4.738281 -7.710938 3.9375 -9.734375 C 3.144531 -11.753906 2.75 -13.894531 2.75 -16.15625 C 2.75 -18.445312 3.15625 -20.613281 3.96875 -22.65625 C 4.789062 -24.707031 5.910156 -26.515625 7.328125 -28.078125 C 8.742188 -29.640625 10.410156 -30.859375 12.328125 -31.734375 C 14.253906 -32.617188 16.28125 -33.0625 18.40625 -33.0625 C 20.570312 -33.0625 22.601562 -32.617188 24.5 -31.734375 C 26.40625 -30.859375 28.078125 -29.640625 29.515625 -28.078125 C 30.960938 -26.515625 32.09375 -24.707031 32.90625 -22.65625 C 33.71875 -20.613281 34.125 -18.445312 34.125 -16.15625 C 34.125 -13.894531 33.726562 -11.753906 32.9375 -9.734375 C 32.144531 -7.710938 31.023438 -5.914062 29.578125 -4.34375 C 28.140625 -2.78125 26.46875 -1.5625 24.5625 -0.6875 C 22.664062 0.1875 20.613281 0.625 18.40625 0.625 Z M 4.890625 -16.09375 C 4.890625 -13.375 5.492188 -10.898438 6.703125 -8.671875 C 7.910156 -6.441406 9.535156 -4.664062 11.578125 -3.34375 C 13.628906 -2.03125 15.882812 -1.375 18.34375 -1.375 C 20.84375 -1.375 23.113281 -2.039062 25.15625 -3.375 C 27.207031 -4.71875 28.847656 -6.523438 30.078125 -8.796875 C 31.316406 -11.066406 31.9375 -13.539062 31.9375 -16.21875 C 31.9375 -18.925781 31.316406 -21.40625 30.078125 -23.65625 C 28.847656 -25.914062 27.207031 -27.710938 25.15625 -29.046875 C 23.113281 -30.378906 20.863281 -31.046875 18.40625 -31.046875 C 15.988281 -31.046875 13.742188 -30.367188 11.671875 -29.015625 C 9.609375 -27.660156 7.960938 -25.84375 6.734375 -23.5625 C 5.503906 -21.289062 4.890625 -18.800781 4.890625 -16.09375 Z M 4.890625 -16.09375 "/></g></g></g><g fill="#f4f5f7" fill-opacity="1"><g transform="translate(418.45623, 59.847498)"><g><path d="M 18.65625 0.625 C 16.445312 0.625 14.378906 0.175781 12.453125 -0.71875 C 10.535156 -1.613281 8.847656 -2.84375 7.390625 -4.40625 C 5.929688 -5.976562 4.789062 -7.785156 3.96875 -9.828125 C 3.15625 -11.867188 2.75 -14.0625 2.75 -16.40625 C 2.75 -19.53125 3.4375 -22.34375 4.8125 -24.84375 C 6.195312 -27.351562 8.085938 -29.347656 10.484375 -30.828125 C 12.890625 -32.316406 15.59375 -33.0625 18.59375 -33.0625 C 21.4375 -33.0625 23.960938 -32.398438 26.171875 -31.078125 C 28.378906 -29.765625 30.023438 -27.960938 31.109375 -25.671875 L 29.046875 -24.921875 C 28.046875 -26.835938 26.59375 -28.335938 24.6875 -29.421875 C 22.789062 -30.503906 20.695312 -31.046875 18.40625 -31.046875 C 15.90625 -31.046875 13.628906 -30.398438 11.578125 -29.109375 C 9.535156 -27.816406 7.910156 -26.0625 6.703125 -23.84375 C 5.492188 -21.632812 4.890625 -19.15625 4.890625 -16.40625 C 4.890625 -13.6875 5.503906 -11.179688 6.734375 -8.890625 C 7.960938 -6.597656 9.609375 -4.769531 11.671875 -3.40625 C 13.742188 -2.050781 16.007812 -1.375 18.46875 -1.375 C 20.09375 -1.375 21.675781 -1.675781 23.21875 -2.28125 C 24.769531 -2.882812 26.109375 -3.675781 27.234375 -4.65625 C 28.359375 -5.644531 29.085938 -6.703125 29.421875 -7.828125 L 31.5625 -7.203125 C 31.050781 -5.703125 30.140625 -4.351562 28.828125 -3.15625 C 27.515625 -1.96875 25.976562 -1.039062 24.21875 -0.375 C 22.46875 0.289062 20.613281 0.625 18.65625 0.625 Z M 18.65625 0.625 "/></g></g></g><g fill="#f4f5f7" fill-opacity="1"><g transform="translate(461.717692, 59.847498)"><g><path d="M 2.3125 -9.328125 C 2.3125 -11.242188 2.894531 -12.898438 4.0625 -14.296875 C 5.238281 -15.703125 6.828125 -16.8125 8.828125 -17.625 C 10.828125 -18.4375 13.164062 -18.84375 15.84375 -18.84375 C 17.59375 -18.84375 19.40625 -18.6875 21.28125 -18.375 C 23.164062 -18.0625 24.859375 -17.632812 26.359375 -17.09375 L 26.359375 -20.53125 C 26.359375 -23.707031 25.425781 -26.265625 23.5625 -28.203125 C 21.707031 -30.140625 19.21875 -31.109375 16.09375 -31.109375 C 14.507812 -31.109375 12.828125 -30.773438 11.046875 -30.109375 C 9.273438 -29.441406 7.472656 -28.460938 5.640625 -27.171875 L 4.578125 -28.734375 C 6.703125 -30.191406 8.722656 -31.273438 10.640625 -31.984375 C 12.566406 -32.703125 14.425781 -33.0625 16.21875 -33.0625 C 19.96875 -33.0625 22.945312 -31.921875 25.15625 -29.640625 C 27.375 -27.367188 28.484375 -24.289062 28.484375 -20.40625 L 28.484375 -3.25 C 28.484375 -2.789062 28.578125 -2.445312 28.765625 -2.21875 C 28.953125 -1.988281 29.234375 -1.875 29.609375 -1.875 L 29.609375 0 C 29.316406 0 29.078125 0 28.890625 0 C 28.703125 0 28.546875 -0.0195312 28.421875 -0.0625 C 27.835938 -0.1875 27.378906 -0.5 27.046875 -1 C 26.710938 -1.5 26.523438 -2.039062 26.484375 -2.625 L 26.484375 -5.453125 C 24.984375 -3.523438 23.039062 -2.03125 20.65625 -0.96875 C 18.28125 0.09375 15.734375 0.625 13.015625 0.625 C 11.015625 0.625 9.203125 0.1875 7.578125 -0.6875 C 5.953125 -1.5625 4.664062 -2.757812 3.71875 -4.28125 C 2.78125 -5.8125 2.3125 -7.492188 2.3125 -9.328125 Z M 25.234375 -6.515625 C 25.609375 -7.015625 25.890625 -7.503906 26.078125 -7.984375 C 26.265625 -8.460938 26.359375 -8.890625 26.359375 -9.265625 L 26.359375 -15.21875 C 24.734375 -15.84375 23.050781 -16.3125 21.3125 -16.625 C 19.582031 -16.9375 17.800781 -17.09375 15.96875 -17.09375 C 12.5 -17.09375 9.695312 -16.390625 7.5625 -14.984375 C 5.4375 -13.585938 4.375 -11.742188 4.375 -9.453125 C 4.375 -7.953125 4.757812 -6.570312 5.53125 -5.3125 C 6.3125 -4.0625 7.378906 -3.0625 8.734375 -2.3125 C 10.085938 -1.5625 11.597656 -1.1875 13.265625 -1.1875 C 15.859375 -1.1875 18.226562 -1.675781 20.375 -2.65625 C 22.53125 -3.632812 24.148438 -4.921875 25.234375 -6.515625 Z M 25.234375 -6.515625 "/></g></g></g><g fill="#f4f5f7" fill-opacity="1"><g transform="translate(504.040046, 59.847498)"><g><path d="M 18.59375 -1.5 C 18.507812 -1.457031 18.175781 -1.28125 17.59375 -0.96875 C 17.007812 -0.65625 16.269531 -0.363281 15.375 -0.09375 C 14.476562 0.175781 13.441406 0.3125 12.265625 0.3125 C 11.179688 0.3125 10.179688 0.101562 9.265625 -0.3125 C 8.347656 -0.726562 7.617188 -1.34375 7.078125 -2.15625 C 6.535156 -2.96875 6.265625 -3.941406 6.265625 -5.078125 L 6.265625 -30.671875 L 1.625 -30.671875 L 1.625 -32.5625 L 6.265625 -32.5625 L 6.265625 -43.765625 L 8.390625 -43.765625 L 8.390625 -32.5625 L 16.09375 -32.5625 L 16.09375 -30.671875 L 8.390625 -30.671875 L 8.390625 -5.390625 C 8.472656 -4.171875 8.929688 -3.25 9.765625 -2.625 C 10.597656 -2 11.554688 -1.6875 12.640625 -1.6875 C 14.023438 -1.6875 15.207031 -1.925781 16.1875 -2.40625 C 17.164062 -2.882812 17.695312 -3.164062 17.78125 -3.25 Z M 18.59375 -1.5 "/></g></g></g></g></g></svg>
